<svg width="375" height="648" viewBox="0 0 375 648" fill="none" xmlns="http://www.w3.org/2000/svg">
<g clip-path="url(#clip0_2107_9481)">
<path fill-rule="evenodd" clip-rule="evenodd" d="M111.378 335.339C110.998 335.573 106.609 334.942 103.288 334.176C101.245 333.704 98.321 333.136 96.7897 332.914C95.2583 332.691 91.8773 332.081 89.2763 331.56C86.6752 331.038 83.8837 330.567 83.0729 330.512C81.5868 330.411 76.5364 329.577 70.191 328.385C68.2989 328.029 66.5931 327.791 66.4002 327.855C66.0618 327.967 63.6573 327.536 53.2691 325.499C50.6048 324.977 48.0072 324.562 47.4966 324.577C46.9512 324.593 44.137 324.032 40.6757 323.219C37.4347 322.457 34.2714 321.804 33.6461 321.769C33.0208 321.733 29.206 320.986 25.1688 320.108C19.5917 318.895 17.6982 318.555 17.2859 318.693C16.9873 318.794 16.3969 319.393 15.9737 320.026C15.5504 320.659 14.814 321.653 14.3373 322.236C13.4833 323.278 13.446 323.386 11.8499 329.373C10.9588 332.716 9.99066 336.018 9.69831 336.71C9.39392 337.43 8.12886 342.329 6.73884 348.171C4.68628 356.796 4.18396 358.656 3.49029 360.203C2.78191 361.783 2.50929 362.814 1.49479 367.752C0.848469 370.898 0.197027 373.961 0.0469248 374.56C-0.476507 376.648 -2.37141 382.529 -2.81843 383.453C-3.06632 383.965 -3.59746 385.744 -3.99912 387.406C-4.87317 391.022 -4.81142 391.796 -3.574 392.758C-3.13804 393.097 -2.56867 393.427 -2.30868 393.492C-1.64013 393.659 -0.798585 394.887 -0.720506 395.811C-0.607763 397.143 -0.0297413 397.758 1.70936 398.397C3.86891 399.189 12.5402 400.999 14.592 401.086C15.6513 401.13 17.6731 401.491 20.0709 402.062C24.2245 403.052 25.2749 403.082 25.8577 402.224C26.0495 401.942 26.4668 400.162 26.898 397.788C27.294 395.608 28.0524 391.642 28.5832 388.977C29.1141 386.311 29.5357 383.712 29.5202 383.201C29.5046 382.689 29.7472 381.19 30.0593 379.868C30.3711 378.546 30.6629 376.66 30.7073 375.675C30.7545 374.629 31.0908 372.602 31.5176 370.792C31.9527 368.946 32.2577 367.095 32.2734 366.204C32.2889 365.328 32.5958 363.446 33.0156 361.651C33.4094 359.968 33.7245 358.174 33.716 357.664C33.7073 357.154 33.9157 355.439 34.1788 353.852C34.4421 352.265 34.7978 350.117 34.9696 349.079C35.3322 346.888 35.7686 346.197 36.7172 346.309C37.2249 346.369 37.6509 346.948 39.5994 350.226C40.857 352.342 42.5665 355.316 43.3986 356.835C44.2304 358.354 45.6492 360.873 46.5513 362.432C47.4533 363.992 48.4596 365.851 48.7875 366.564C49.1155 367.277 50.3422 369.505 51.514 371.516C54.01 375.799 57.4449 381.931 58.7933 384.511C60.1878 387.179 67.5995 399.658 71.4519 405.824C73.8109 409.6 75.0295 411.337 75.5947 411.729C76.2531 412.186 77.1992 412.463 80.9216 413.292C80.9216 413.292 85.1983 414.221 86.1711 413.853C86.9771 413.549 87.6766 411.7 90.1813 402.159C91.2994 397.902 92.3431 394.315 92.5992 393.852C92.8681 393.365 93.5344 391.012 94.2519 388.015C95.0989 384.478 95.6716 382.512 96.1893 381.361C96.664 380.306 97.2525 378.362 97.8512 375.873C98.4542 373.365 99.0052 371.549 99.4282 370.674C99.8069 369.89 100.375 368.099 100.789 366.383C101.18 364.763 101.845 362.637 102.268 361.659C102.691 360.681 103.237 359.046 103.48 358.025C103.972 355.963 104.559 355.058 105.719 354.568C106.296 354.325 106.496 354.345 107.07 354.702C108.115 355.349 109.716 357.604 110.642 359.732C111.104 360.794 112.004 362.522 112.642 363.571C114.045 365.877 117.358 371.949 118.41 374.14C118.828 375.012 120.683 378.329 122.53 381.51C126.036 387.547 127.042 389.38 129.002 393.299C129.651 394.595 130.725 396.513 131.39 397.56C132.055 398.607 132.868 400.087 133.199 400.851C133.529 401.614 134.402 403.172 135.14 404.313C135.877 405.454 136.987 407.443 137.605 408.733C138.223 410.022 139.122 411.69 139.602 412.439C140.082 413.188 141.017 414.917 141.678 416.28C142.34 417.644 143.129 419.13 143.432 419.583C143.735 420.036 144.256 420.99 144.59 421.705C144.924 422.419 145.681 423.949 146.272 425.105C146.863 426.262 147.978 428.457 148.748 429.984C149.632 431.734 150.418 432.977 150.875 433.345C151.57 433.904 152.954 434.499 158.288 436.533C161.027 437.577 163.961 438.737 166.292 439.698C167.157 440.055 168.829 440.654 170.007 441.03C171.186 441.405 172.713 441.959 173.402 442.259C175.61 443.224 178.209 444.141 179.818 444.524C181.467 444.916 182.137 444.772 182.325 443.983C182.472 443.368 181.791 441.771 180.623 439.985C180.032 439.083 178.163 435.922 176.467 432.962C174.772 430.002 173.056 427.101 172.653 426.515C172.25 425.929 171.318 424.268 170.581 422.823C169.844 421.378 167.155 416.739 164.605 412.512C162.054 408.286 159.405 403.761 158.718 402.456C156.536 398.315 132.001 358.412 130.295 356.23C129.81 355.61 128.354 353.446 127.058 351.421C125.763 349.396 124.158 346.989 123.493 346.072C122.828 345.155 121.601 343.353 120.767 342.066C119.932 340.78 118.805 339.2 118.261 338.556C117.717 337.912 117.177 337.19 117.06 336.952C116.883 336.594 116.394 336.413 114.184 335.886C112.719 335.537 111.456 335.291 111.378 335.339Z" fill="#F4F5F7"/>
<path d="M86.6155 462.33C83.7018 477.551 66.7334 496.935 38.9387 492.943C8.64955 488.592 -3.78128 466.258 -0.121611 440.779C3.97313 412.272 25.699 396.48 51.3557 400.165C79.685 404.235 91.3283 424.455 87.9718 452.887L25.79 443.955L25.6621 444.846C23.0773 462.842 28.2866 474.683 41.4713 476.576C54.2997 478.419 60.2629 469.82 63.0968 458.952L86.6155 462.33ZM49.1794 416.583C38.4891 415.047 31.5346 421.686 27.8591 434.615L64.0279 439.81C65.5122 429.476 61.2951 418.323 49.1794 416.583Z" fill="#F4F5F7"/>
<path d="M109.615 462.136C112.532 462.916 122.029 465.533 122.43 465.668L124.158 466.817C124.284 466.996 124.432 467.36 124.485 467.626C124.684 468.613 124.605 468.921 123.259 472.43C121.873 476.042 121.778 476.435 122.084 477.315C122.313 477.972 122.628 478.25 123.583 478.64C124.518 479.021 126.651 479.458 127.506 479.443C128.221 479.43 129.089 479.032 129.459 478.546C129.614 478.342 129.929 477.82 130.158 477.386C130.388 476.952 130.729 476.406 130.917 476.174C131.105 475.941 131.554 475.294 131.913 474.736C133.243 472.673 134.729 471.182 136.084 470.552C136.497 470.361 136.816 470.204 136.795 470.204L139.348 470.212L139.988 470.475C141.284 471.007 143.301 472.451 143.84 473.233C143.984 473.442 144.139 473.87 144.185 474.184L144.269 474.756L143.1 477.599C142.457 479.162 141.175 482.134 140.251 484.202C138.466 488.195 138.364 488.496 138.563 489.185C138.774 489.918 139.518 490.467 141.706 491.507C143.4 492.311 144.536 492.418 145.396 491.851C146.351 491.221 147.082 490.041 149.28 485.578C151.413 481.245 153.047 478.361 153.752 477.683C154.824 476.653 155.374 476.619 158.087 477.42C159.868 477.945 163.693 479.179 166.844 480.243C167.42 480.438 167.791 480.532 167.913 480.516C167.865 480.485 167.868 480.474 167.955 480.495C167.951 480.506 167.937 480.513 167.913 480.516C168.093 480.63 168.986 481.012 168.977 481.035C168.965 481.064 169.762 481.383 170.748 481.744C173.342 482.692 178.423 484.971 180.222 485.993C183.072 487.611 185.103 489.361 186.046 491.01C186.345 491.532 186.432 491.84 186.474 492.52C186.615 494.772 185.588 498.302 183.895 501.389C182.394 504.126 181.09 507.171 175.918 520.024C173.168 526.857 170.008 534.81 168.895 537.699C163.489 551.727 163.214 552.4 159.662 560.328C158.478 562.969 157.917 564.335 157.328 566.016C156.353 568.796 155.275 572.744 155.449 572.857C155.46 572.85 155.469 572.848 155.477 572.851C155.466 572.86 155.456 572.862 155.449 572.857C155.345 572.922 155.114 573.414 155.082 573.491C154.956 573.8 154.432 574.087 153.919 574.127C153.299 574.176 150.409 573.903 149.071 573.668C147.568 573.404 146.889 573.161 144.573 572.058C142.782 571.205 141.568 570.709 137.831 569.299C132.218 567.181 130.227 566.255 127.621 564.551C126.799 564.014 126.304 563.773 124.558 563.065C123.356 562.578 122.167 562.154 121.748 562.063C120.35 561.76 119.669 561.49 119.151 561.031C117.504 559.573 116.641 556.53 117.22 554.222C117.373 553.616 117.809 552.668 121.57 544.783C124.629 538.367 127.37 532.973 129.869 528.451C131.463 525.567 131.896 524.559 131.88 523.767C131.858 522.692 131.323 522.265 128.145 520.785C123.907 518.811 122.743 518.749 121.307 520.422C120.177 521.74 116.463 528.353 111.769 537.408C104.753 550.944 104.285 551.74 102.96 552.399C101.919 552.916 101.004 552.719 98.309 551.395C95.3561 549.944 94.5629 549.393 94.1783 548.528C94.032 548.199 93.9469 547.79 93.9718 547.536C94.0461 546.776 94.6629 545.203 95.6276 543.315C98.0434 538.587 100.943 533.037 103.649 527.962C104.462 526.437 105.466 524.542 105.879 523.751C106.292 522.96 106.714 522.17 106.817 521.995C107.372 521.046 109.673 516.567 109.924 515.947C110.621 514.222 110.287 512.103 109.129 510.905C108.259 510.004 107.211 509.6 106.413 509.856C105.962 510 105.708 510.279 105.185 511.2C104.971 511.577 104.441 512.5 104.007 513.252C102.152 516.467 99.9716 520.895 96.7404 528.013C96.0884 529.449 95.1321 531.541 94.6154 532.661C93.76 534.515 91.0452 540.722 89.1435 545.172C88.2994 547.147 88.0187 547.528 87.1189 547.922C86.2228 548.315 85.1723 547.972 80.7184 545.835C77.824 544.446 73.6101 542.699 72.3157 542.352C70.4036 541.839 70.025 541.686 69.7646 541.323C69.4621 540.9 69.4572 540.363 69.7493 539.647C70.0484 538.914 70.1364 538.008 69.9552 537.526C69.7198 536.9 69.2551 536.499 68.0874 535.915C67.5048 535.623 66.9183 535.281 66.7842 535.153C66.0497 534.457 65.8714 533.435 66.2707 532.21C66.4025 531.805 67.1479 530.226 67.9743 528.601C68.7824 527.012 69.7904 524.992 70.2142 524.113C70.638 523.233 71.2754 521.923 71.6306 521.202C72.3278 519.785 76.5935 510.554 77.8443 507.755C86.3985 488.613 88.605 483.763 90.9941 478.85C92.1367 476.5 93.2495 474.096 95.7706 468.531C98.5158 462.472 99.0635 461.427 99.8545 460.743C100.658 460.049 101.503 459.929 102.907 460.31C103.382 460.439 104.731 460.808 105.904 461.129C107.077 461.451 108.747 461.904 109.615 462.136Z" fill="#F4F5F7"/>
<path fill-rule="evenodd" clip-rule="evenodd" d="M103.029 433.463C102.285 433.595 101.647 434.002 99.8366 435.499C97.016 437.83 96.5205 438.5 96.2974 440.284C96.1857 441.177 96.2074 441.348 96.5466 442.242C96.7509 442.781 97.1432 443.573 97.4184 444.002C97.6936 444.431 97.91 444.851 97.8993 444.937C97.8568 445.277 97.3006 445.444 95.6837 445.602C93.1598 445.85 92.1555 446.122 90.195 447.09C88.2717 448.039 87.5056 448.912 87.6196 450.022C87.7697 451.482 89.7111 452.908 92.3756 453.514C94.2129 453.932 94.2429 454.154 92.6478 455.526C91.4807 456.53 89.994 458.131 89.3453 459.082C88.7961 459.887 88.1215 461.488 88.0354 462.19C87.9172 463.155 88.911 464.755 89.804 465.037C90.7695 465.342 92.9556 464.864 94.4779 464.015C96.1346 463.091 99.0222 460.742 101.137 458.597C103.96 455.734 103.998 455.725 104.974 457.758C105.82 459.52 106.185 459.901 109.174 462.153C111.057 463.571 111.927 463.947 113.246 463.913C113.726 463.901 114.269 463.819 114.453 463.731C114.637 463.644 115.114 463.134 115.515 462.599C116.293 461.559 116.572 460.827 116.928 458.89C117.098 457.968 117.09 457.88 116.759 457.021C116.192 455.55 116.425 454.868 117.51 454.815C118.385 454.772 120.448 454.17 121.35 453.695C122.702 452.982 123.527 452.257 123.714 451.616C123.8 451.321 123.995 450.807 124.147 450.474C124.416 449.881 124.417 449.849 124.184 449.132C123.869 448.16 123.104 447.242 122.231 446.789C121.386 446.35 119.869 446.05 118.586 446.066C117.98 446.074 117.531 446.022 117.338 445.921C117.073 445.783 117.052 445.712 117.164 445.311C117.233 445.062 117.495 444.369 117.746 443.77C118.742 441.395 118.861 440.284 118.248 439.072C117.454 437.501 115.268 436.968 112.808 437.744C112.146 437.952 111.548 438.31 110.225 439.286C108.547 440.526 108.123 440.714 107.891 440.324C107.836 440.231 107.723 439.667 107.642 439.07C107.369 437.09 106.101 434.808 104.785 433.933C104.247 433.575 103.51 433.377 103.029 433.463ZM104.524 436.419C105.059 436.949 105.477 438.522 105.124 438.679C104.989 438.739 104.585 438.203 104.194 437.444C104.041 437.149 103.84 436.774 103.748 436.61C103.425 436.04 103.998 435.899 104.524 436.419ZM101.217 438.464C100.755 439.1 100.157 439.21 100.228 438.645C100.266 438.338 101.251 437.726 101.402 437.915C101.477 438.009 101.416 438.19 101.217 438.464ZM101.171 444.107C101.2 444.218 101.162 444.357 101.086 444.414C100.882 444.569 100.543 444.342 100.576 444.073C100.613 443.783 101.096 443.811 101.171 444.107ZM118.253 450.63C117.929 450.893 117.914 450.937 118.05 451.26C118.26 451.759 118.442 451.791 118.935 451.416C119.503 450.984 119.524 450.553 118.982 450.432C118.704 450.37 118.509 450.423 118.253 450.63ZM92.0373 450.127C92.2831 450.256 92.2099 450.872 91.923 451.09C91.7481 451.223 91.6466 451.22 91.4079 451.076C90.6484 450.617 91.2483 449.713 92.0373 450.127Z" fill="#F6C8BC"/>
<path d="M27.7244 577.227C31.6878 593.321 32.8057 601.622 32.1913 605.928L62.9398 596.923L46.7507 541.645L21.0118 549.183L27.7244 577.227ZM8.398 582.324L-1.85228 538.998L64.6542 519.521L85.3965 590.346L100.08 586.046L112.222 627.505L93.2197 633.07L85.6311 607.158L25.1706 624.865L32.7593 650.776L13.7574 656.341L1.61557 614.883L11.9802 611.847C12.7674 607.49 12.3404 598.988 8.398 582.324Z" fill="#F4F5F7"/>
<path d="M131.399 594.95L147.969 600.682L237.001 560.391L237.046 587.211L178.227 611.611L237.121 631.491L237.162 655.431L114.868 611.898C105.682 608.674 102.078 605.98 102.057 593.74L102.022 573.22L121.822 573.187L121.841 584.527C121.854 592.087 125.455 592.8 131.399 594.95Z" fill="#F4F5F7"/>
<path fill-rule="evenodd" clip-rule="evenodd" d="M130.264 577.614C130.095 577.728 129.997 577.819 129.768 578.072C129.697 578.15 129.566 578.276 129.476 578.352C129.289 578.51 129.172 578.634 129.069 578.787C129.03 578.845 128.937 578.952 128.864 579.025C128.666 579.221 128.552 579.377 128.442 579.604C128.387 579.715 128.31 579.865 128.271 579.936C128.159 580.141 128.02 580.547 127.967 580.826C127.941 580.967 127.898 581.193 127.871 581.328C127.794 581.727 127.733 582.167 127.736 582.294C127.738 582.36 127.758 582.534 127.78 582.682C127.822 582.962 127.824 582.987 127.808 583.312C127.803 583.422 127.81 583.564 127.824 583.627C127.838 583.69 127.855 583.795 127.862 583.862C127.87 583.928 127.894 584.063 127.916 584.163C127.939 584.263 127.967 584.498 127.978 584.686C127.99 584.873 128.007 585.116 128.017 585.225C128.027 585.334 128.041 585.545 128.049 585.693C128.066 586.018 128.104 586.259 128.195 586.612C128.339 587.17 128.416 587.343 129.044 588.51C129.466 589.291 129.624 589.554 129.95 590.012C130.058 590.164 130.205 590.389 130.276 590.513C130.384 590.699 130.455 590.794 130.68 591.047C130.83 591.216 131.05 591.474 131.169 591.62C131.289 591.765 131.449 591.951 131.526 592.031C131.603 592.112 131.812 592.349 131.991 592.559C132.586 593.254 132.931 593.599 133.394 593.962C133.481 594.03 133.631 594.166 133.727 594.264C134.169 594.715 134.815 595.246 135.194 595.472C135.261 595.511 135.415 595.616 135.536 595.704C136.82 596.635 137.452 596.991 139.501 597.943C140.258 598.295 141.251 598.693 141.987 598.941C142.487 599.109 143.245 599.283 143.93 599.387C144.12 599.416 144.364 599.458 144.472 599.481C144.85 599.56 145.193 599.593 145.575 599.587C145.958 599.581 146.177 599.549 146.628 599.433C146.724 599.409 146.886 599.369 146.988 599.345C147.091 599.322 147.284 599.261 147.418 599.209C147.552 599.158 147.726 599.101 147.806 599.083C147.99 599.04 148.365 598.864 148.671 598.676C148.798 598.598 149.033 598.473 149.193 598.397C149.467 598.268 149.491 598.26 149.601 598.263C149.735 598.267 150.082 598.242 150.19 598.222C150.23 598.214 150.348 598.168 150.451 598.119C150.586 598.056 150.698 598.019 150.843 597.989C150.956 597.967 151.122 597.921 151.212 597.887C151.364 597.83 151.383 597.817 151.461 597.725C151.507 597.67 151.561 597.617 151.582 597.608C151.603 597.598 151.695 597.604 151.787 597.622C151.977 597.659 152.129 597.648 152.255 597.588C152.302 597.566 152.41 597.53 152.494 597.507C152.578 597.485 152.709 597.445 152.785 597.418C152.955 597.358 153.38 597.286 153.544 597.291C153.671 597.294 154.243 597.245 154.394 597.218C154.447 597.208 154.665 597.116 154.94 596.987C155.369 596.786 155.66 596.676 155.872 596.635C155.912 596.627 156.064 596.577 156.209 596.523C156.354 596.468 156.556 596.404 156.658 596.38C157.188 596.253 157.854 595.987 158.562 595.619C158.81 595.49 159.051 595.366 159.097 595.343C159.143 595.32 159.359 595.208 159.576 595.093C159.793 594.978 160.142 594.802 160.351 594.702C160.56 594.601 160.788 594.482 160.858 594.437C161.131 594.259 161.458 594.091 162.424 593.631C163.524 593.108 163.494 593.125 164.005 592.728C164.427 592.401 164.631 592.194 164.984 591.738C165.482 591.096 165.747 590.698 166.012 590.196C166.192 589.855 166.278 589.708 166.496 589.367C166.935 588.682 167.172 588.163 167.278 587.653C167.435 586.898 167.535 586.116 167.554 585.483C167.562 585.23 167.574 584.931 167.581 584.82C167.625 584.156 167.604 583.644 167.499 582.779C167.392 581.904 167.065 580.452 166.787 579.621C166.74 579.479 166.698 579.348 166.695 579.331C166.692 579.313 166.651 579.193 166.603 579.064C166.556 578.935 166.491 578.753 166.46 578.661C166.352 578.344 166.068 577.639 165.93 577.348C165.797 577.067 165.648 576.81 165.381 576.401C165.156 576.056 164.906 575.665 164.794 575.483C164.304 574.686 163.878 574.298 162.767 573.631C162.35 573.381 162.07 573.25 161.786 573.173C161.65 573.136 161.387 573.038 161.201 572.956C161.016 572.873 160.748 572.759 160.606 572.701C160.465 572.644 160.251 572.539 160.131 572.469C159.847 572.302 159.713 572.237 159.432 572.127C159.305 572.077 159.119 571.992 159.019 571.939C158.918 571.885 158.785 571.814 158.722 571.78C158.659 571.747 158.324 571.62 157.979 571.499C156.922 571.128 156.146 570.998 154.826 570.968C154.557 570.962 153.994 571.021 153.764 571.079C153.696 571.097 153.513 571.136 153.358 571.168C152.923 571.255 152.474 571.388 151.853 571.613C151.545 571.725 150.429 572.273 150.02 572.513C149.063 573.076 148.172 573.704 147.918 573.995C147.794 574.138 147.328 574.515 147.204 574.574C147.081 574.632 147.074 574.632 146.405 574.577C145.814 574.529 144.848 574.553 144.324 574.629C143.916 574.688 143.454 574.784 143.058 574.891C142.84 574.95 142.588 575.018 142.498 575.042C142.11 575.144 141.395 575.428 140.98 575.645C140.504 575.893 140.019 576.175 139.816 576.323C139.714 576.397 139.556 576.509 139.465 576.57C139.174 576.768 138.948 576.938 138.671 577.166C138.427 577.367 138.393 577.389 138.315 577.401C138.246 577.411 138.112 577.372 137.629 577.199C136.773 576.891 136.339 576.809 135.161 576.733C134.386 576.683 133.861 576.679 133.287 576.721C132.789 576.756 132.645 576.778 132.437 576.846C132.343 576.877 132.201 576.908 132.12 576.914C131.847 576.937 131.105 577.176 130.694 577.375C130.549 577.445 130.355 577.553 130.264 577.614ZM133.198 580.415C133.367 580.389 133.742 580.354 133.843 580.356C134.077 580.361 134.662 580.415 134.786 580.443C134.945 580.479 135.04 580.548 135.061 580.642C135.069 580.675 135.051 580.78 135.022 580.877C134.993 580.973 134.963 581.095 134.955 581.148C134.942 581.242 134.898 581.328 134.795 581.462C134.73 581.548 134.708 581.598 134.661 581.776C134.623 581.919 134.526 582.102 134.385 582.302C134.276 582.455 134.204 582.668 134.156 582.983C134.113 583.269 134.06 583.48 133.931 583.891C133.9 583.991 133.864 584.14 133.851 584.223C133.838 584.307 133.801 584.467 133.768 584.58C133.693 584.842 133.626 585.184 133.623 585.319C133.618 585.519 133.696 585.975 133.763 586.14C133.809 586.255 133.828 586.339 133.835 586.473C133.845 586.672 133.925 587.477 133.96 587.747C133.98 587.896 134 587.955 134.098 588.165C134.2 588.382 134.226 588.423 134.329 588.527C134.623 588.825 134.93 589.101 135.101 589.221C135.204 589.293 135.339 589.404 135.401 589.469C135.524 589.595 135.737 589.748 135.875 589.808C135.923 589.828 136.02 589.856 136.092 589.868C136.163 589.881 136.359 589.943 136.528 590.005C136.886 590.138 137.009 590.157 137.259 590.121C137.36 590.106 137.517 590.098 137.608 590.103C137.873 590.119 138.139 590.105 138.296 590.067C138.376 590.048 138.596 589.968 138.786 589.89C139.184 589.727 139.224 589.718 139.56 589.713C139.793 589.71 139.828 589.704 140.046 589.624C140.176 589.577 140.371 589.496 140.48 589.445L140.678 589.351L140.792 589.181C140.941 588.957 140.971 588.925 141.087 588.871C141.228 588.804 141.28 588.75 141.437 588.515C141.558 588.334 141.59 588.262 141.675 587.984C141.753 587.731 141.774 587.623 141.774 587.475C141.774 587.313 141.787 587.258 141.865 587.074C141.994 586.771 142.267 586.003 142.38 585.626C142.481 585.29 142.581 584.696 142.598 584.335C142.61 584.07 142.585 583.806 142.527 583.597C142.502 583.504 142.469 583.349 142.454 583.252C142.277 582.09 142.157 581.665 141.773 580.839C141.501 580.255 141.497 580.242 141.568 580.125C141.648 579.994 142.223 579.63 142.888 579.29C143.179 579.14 143.277 579.099 143.55 579.014C143.898 578.904 144.009 578.892 144.071 578.955C144.142 579.028 144.137 579.107 144.041 579.39C143.989 579.542 143.939 579.722 143.929 579.79C143.919 579.858 143.876 580.085 143.833 580.295C143.791 580.505 143.755 580.723 143.754 580.781C143.753 580.838 143.746 580.948 143.738 581.024C143.724 581.164 143.729 581.456 143.75 581.725C143.756 581.804 143.754 581.95 143.745 582.049C143.722 582.317 143.76 582.57 143.875 582.907C143.929 583.065 143.989 583.27 144.008 583.362C144.036 583.493 144.077 583.599 144.199 583.858C144.285 584.039 144.386 584.275 144.425 584.383C144.641 584.986 144.666 585.044 144.784 585.214C144.846 585.304 144.968 585.464 145.054 585.568C145.141 585.673 145.256 585.83 145.311 585.918C145.734 586.597 145.932 586.807 146.52 587.202C146.724 587.339 146.981 587.52 147.334 587.774C147.422 587.838 147.597 587.936 147.722 587.993C147.847 588.049 148.049 588.15 148.17 588.217C148.292 588.284 148.43 588.356 148.477 588.376C148.612 588.434 148.894 588.466 149.063 588.442C149.148 588.43 149.254 588.421 149.299 588.423C149.344 588.424 149.563 588.494 149.786 588.578C150.194 588.731 150.452 588.789 150.738 588.793C150.9 588.796 152.026 588.726 152.412 588.69C152.479 588.684 152.617 588.649 152.719 588.611C152.822 588.574 152.952 588.532 153.008 588.517C153.357 588.427 153.654 588.251 154.416 587.681C154.875 587.337 155.406 586.796 155.667 586.404C156.046 585.837 156.204 585.393 156.478 584.134C156.588 583.628 156.646 583.238 156.644 583.017C156.643 582.761 156.59 582.309 156.528 582.013C156.475 581.765 156.473 581.759 156.209 581.211C156.017 580.81 155.88 580.552 155.713 580.273C155.586 580.061 155.391 579.714 155.279 579.501C155.167 579.289 155.055 579.092 155.029 579.064C154.986 579.017 154.85 578.808 154.607 578.419C154.382 578.057 153.904 577.607 153.447 577.326C153.142 577.138 153.064 577.039 153.133 576.925C153.178 576.852 153.374 576.767 153.577 576.731C153.665 576.716 153.873 576.674 154.039 576.639C154.437 576.554 155.305 576.453 155.932 576.419C156.357 576.396 156.486 576.399 156.768 576.437C156.951 576.462 157.307 576.503 157.559 576.528C157.811 576.553 158.105 576.596 158.214 576.624C158.322 576.652 158.527 576.702 158.669 576.735C158.998 576.81 159.133 576.865 159.288 576.988C159.463 577.125 159.54 577.212 159.717 577.471C159.802 577.595 159.915 577.748 159.969 577.811C160.024 577.874 160.149 578.042 160.248 578.185C160.347 578.328 160.48 578.519 160.543 578.609C160.605 578.7 160.731 578.868 160.822 578.982C161.133 579.373 161.171 579.466 161.402 580.386C161.593 581.144 161.655 581.461 161.708 581.954C161.733 582.183 161.766 582.473 161.781 582.598C161.797 582.724 161.822 582.981 161.837 583.17C161.852 583.358 161.88 583.655 161.9 583.83C161.96 584.369 161.968 584.668 161.931 584.976C161.912 585.136 161.893 585.362 161.889 585.478C161.878 585.806 161.738 586.382 161.521 586.988C161.325 587.536 161.252 587.696 161.092 587.93C160.903 588.208 160.052 589.228 159.802 589.477C159.449 589.829 158.905 590.248 158.456 590.516C158.348 590.58 158.068 590.764 157.834 590.925C157.6 591.085 157.276 591.306 157.113 591.417C156.951 591.527 156.751 591.668 156.671 591.729C156.59 591.791 156.473 591.872 156.412 591.91C156.35 591.948 156.206 592.043 156.091 592.121C155.801 592.321 155.166 592.638 154.438 592.948C153.82 593.21 153.696 593.25 153.083 593.381C152.981 593.403 152.8 593.458 152.681 593.502C152.512 593.566 152.417 593.589 152.249 593.605C152.042 593.624 151.951 593.647 151.547 593.783C151.449 593.816 151.301 593.851 151.217 593.861C150.447 593.95 149.96 594.1 149.061 594.525C148.312 594.878 148.248 594.894 147.135 595.019C146.781 595.058 146.134 595.132 145.696 595.182C144.648 595.301 144.551 595.308 144.071 595.294C143.64 595.282 143.489 595.256 142.908 595.091C142.747 595.045 142.564 594.996 142.501 594.983C142.437 594.969 142.231 594.917 142.043 594.867C141.854 594.817 141.602 594.755 141.484 594.729C141.195 594.667 140.695 594.488 140.486 594.374C140.393 594.323 140.211 594.212 140.081 594.128C139.952 594.044 139.799 593.951 139.741 593.921C139.684 593.892 139.544 593.813 139.431 593.746C139.318 593.679 139.125 593.569 139.003 593.5C138.881 593.432 138.66 593.285 138.512 593.175C138.365 593.065 138.15 592.917 138.036 592.846C137.921 592.775 137.71 592.629 137.568 592.521C137.425 592.413 137.236 592.276 137.149 592.216C136.519 591.789 136.065 591.421 135.733 591.07C135.601 590.93 135.189 590.605 134.787 590.325C134.433 590.077 134.158 589.831 134.004 589.623C133.802 589.35 133.671 589.193 133.221 588.683C132.973 588.402 132.726 588.121 132.673 588.058C132.547 587.909 132.437 587.688 132.161 587.023C131.902 586.401 131.717 586.055 131.495 585.776C131.307 585.54 131.288 585.495 131.278 585.25C131.274 585.136 131.254 584.962 131.235 584.864C131.199 584.678 131.206 584.606 131.28 584.371C131.334 584.201 131.336 584.124 131.292 583.94C131.249 583.758 131.25 583.736 131.307 583.501C131.332 583.397 131.362 583.228 131.372 583.126C131.382 583.023 131.405 582.87 131.424 582.786C131.466 582.599 131.511 582.266 131.52 582.073C131.524 581.996 131.545 581.858 131.566 581.768C131.62 581.54 131.709 581.435 132.03 581.222C132.289 581.05 132.365 580.988 132.508 580.828C132.593 580.734 132.849 580.546 132.994 580.471C133.03 580.452 133.122 580.428 133.198 580.415ZM138.621 583.279C138.828 583.437 138.969 583.711 138.961 583.94C138.958 584.013 138.952 584.179 138.948 584.307C138.944 584.449 138.965 584.736 139.003 585.04C139.093 585.768 139.082 586.074 138.943 586.656C138.88 586.924 138.757 587.161 138.515 587.481C138.339 587.714 138.166 587.77 137.991 587.65C137.853 587.555 137.577 586.973 137.545 586.71C137.518 586.48 137.535 586.258 137.622 585.686C137.673 585.355 137.733 584.953 137.756 584.793C137.812 584.399 137.853 584.239 137.968 583.969C138.08 583.707 138.296 583.34 138.374 583.28C138.449 583.222 138.546 583.221 138.621 583.279ZM148.887 579.696C148.922 579.697 149.159 579.774 149.414 579.866C149.939 580.057 150.219 580.205 150.325 580.348C150.36 580.396 150.463 580.535 150.553 580.657C150.643 580.778 150.755 580.927 150.801 580.987C150.973 581.209 151.106 581.585 151.142 581.958C151.183 582.372 151.097 583.335 150.99 583.654C150.912 583.885 150.471 584.525 150.209 584.787C149.991 585.004 149.75 585.105 149.36 585.14C149.297 585.145 149.157 585.165 149.05 585.183C148.812 585.223 148.534 585.243 148.192 585.244C147.788 585.244 147.542 585.145 147.446 584.943C147.405 584.856 147.307 584.366 147.288 584.155C147.235 583.545 147.319 582.715 147.511 581.969C147.625 581.525 147.936 580.809 148.209 580.362C148.428 580.005 148.433 579.998 148.562 579.871C148.68 579.755 148.798 579.691 148.887 579.696ZM140.893 588.438C140.979 588.469 140.997 588.66 140.92 588.732C140.881 588.768 140.783 588.758 140.742 588.714C140.707 588.677 140.707 588.557 140.741 588.507C140.774 588.46 140.853 588.424 140.893 588.438Z" fill="#F6C8BC"/>
<path fill-rule="evenodd" clip-rule="evenodd" d="M346.901 619.894C344.537 623.387 343.63 629.338 344.277 637.103C344.366 638.165 344.415 639.672 344.388 640.453C344.171 646.567 347.136 649.218 353.438 648.546C372.652 646.496 384.985 626.028 369.397 622.06C367.068 621.468 366.199 621.692 364.14 623.414C362.261 624.986 361.519 624.753 361.106 622.458C360.977 621.742 360.683 620.926 360.453 620.646C360.222 620.365 359.852 619.459 359.631 618.631C358.367 613.911 350.416 614.7 346.901 619.894Z" fill="#F4F5F7"/>
<path d="M238.915 384.048C238.831 383.793 238.886 383.633 239.037 383.691C239.199 383.754 239.231 383.666 239.142 383.399C239.05 383.123 239.121 383.091 239.327 383.317C239.432 383.432 239.55 383.481 239.683 383.464C239.792 383.45 239.933 383.493 239.995 383.56C240.104 383.675 240.109 383.67 240.088 383.465C240.032 382.886 240.215 382.622 240.64 382.673C240.859 382.699 240.872 382.69 240.939 382.457C240.988 382.287 241.124 382.124 241.392 381.915C241.763 381.624 241.853 381.48 242.195 380.63C242.236 380.529 242.315 380.469 242.416 380.461C242.502 380.454 242.599 380.417 242.631 380.377C242.696 380.296 242.83 379.559 242.798 379.456C242.754 379.314 242.929 378.97 243.118 378.827C243.31 378.683 243.314 378.656 243.248 377.968C243.156 377.018 242.543 374.982 242.171 374.394C242.037 374.181 241.922 373.923 241.914 373.815C241.899 373.625 241.902 373.623 242.04 373.721C242.877 374.317 244.296 375.164 244.749 375.338C245.541 375.643 246.316 375.739 246.791 375.592C247.12 375.491 247.184 375.443 247.333 375.189C247.59 374.751 247.981 374.335 248.27 374.194C248.479 374.092 248.523 374.037 248.499 373.907C248.482 373.815 248.529 373.698 248.611 373.632C248.724 373.54 248.736 373.469 248.674 373.282L248.596 373.047L248.95 372.929C249.366 372.79 249.69 372.442 249.918 371.889C249.996 371.699 250.137 371.466 250.232 371.369C250.326 371.273 250.459 371.064 250.526 370.904C250.594 370.745 250.755 370.498 250.886 370.355C251.1 370.121 251.128 370.027 251.188 369.336C251.262 368.474 251.228 368.369 250.726 367.911C250.331 367.55 249.943 367.278 249.276 366.896C248.657 366.541 248.048 366.075 247.995 365.915C247.968 365.835 248.036 365.749 248.216 365.633C248.775 365.272 249.04 365.065 249.643 364.517C250.376 363.851 250.593 363.603 250.77 363.23C250.892 362.971 250.891 362.949 250.741 362.814C250.647 362.728 250.376 362.643 250.066 362.602C249.781 362.563 249.517 362.507 249.48 362.475C249.392 362.403 249.666 361.683 249.833 361.547C249.903 361.49 250.004 361.317 250.058 361.163C250.111 361.009 250.229 360.732 250.319 360.547C250.445 360.288 250.461 360.181 250.389 360.08C250.338 360.008 250.173 359.764 250.022 359.539C249.656 358.989 249.477 358.855 249.222 358.94C249.007 359.012 248.609 358.865 248.551 358.693C248.533 358.639 248.564 358.481 248.619 358.342C248.722 358.084 248.703 357.857 248.582 357.897C248.545 357.909 248.47 357.783 248.414 357.617C248.282 357.22 248.114 357.07 247.469 356.768C246.967 356.533 246.921 356.526 246.709 356.644C246.503 356.758 246.483 356.756 246.481 356.623C246.476 356.289 246.055 356.339 245.048 356.792C244.427 357.072 244.091 357.184 243.477 357.319C241.958 357.654 240.733 357.852 240.219 357.848C239.734 357.845 239.399 357.907 237.984 358.264C237.54 358.376 237.426 358.382 237.377 358.294C237.314 358.182 237.603 357.241 237.937 356.473C238.044 356.227 238.231 355.779 238.353 355.476C238.476 355.174 238.94 354.367 239.385 353.684C240.2 352.434 240.473 351.911 240.911 350.763C241.216 349.962 241.335 349.448 241.359 348.821C241.37 348.544 241.416 348.205 241.461 348.067C241.524 347.875 241.511 347.71 241.405 347.352C241.33 347.097 241.213 346.82 241.146 346.738C241.01 346.572 240.614 346.516 240.173 346.6C240.02 346.63 239.795 346.622 239.673 346.583C239.38 346.488 239.019 346.67 238.501 347.173C237.738 347.914 237.26 348.734 236.826 350.048C236.551 350.883 236.37 351.25 235.956 351.816C235.808 352.019 235.513 352.435 235.301 352.741C235.089 353.046 234.776 353.48 234.607 353.705C234.437 353.931 234.197 354.276 234.074 354.473C233.829 354.865 233.684 354.957 233.568 354.796C233.339 354.476 232.7 353.266 232.338 352.464C231.585 350.799 231.013 349.977 229.701 348.676C226.914 345.914 226.342 345.55 224.945 345.647C224.005 345.713 223.153 346.19 222.815 346.841C222.715 347.034 222.598 347.204 222.556 347.218C222.513 347.232 222.395 347.172 222.294 347.084C222.017 346.844 221.941 346.925 222.045 347.351C222.117 347.645 222.109 347.802 222.011 348.066C221.804 348.623 221.817 348.888 222.098 349.848C222.302 350.546 222.434 350.869 222.747 351.442C223.249 352.357 223.58 353.234 223.442 353.28C223.403 353.293 223.168 353.212 222.919 353.101C222.67 352.99 222.162 352.787 221.79 352.65C221.417 352.513 220.778 352.258 220.37 352.084C219.462 351.698 219.034 351.572 218.245 351.461C217.828 351.402 217.547 351.404 217.357 351.467C217.204 351.519 216.981 351.545 216.862 351.527C216.666 351.497 216.643 351.508 216.61 351.647C216.577 351.78 216.518 351.813 216.171 351.89C215.787 351.975 215.766 351.99 215.673 352.232C215.62 352.372 215.564 352.547 215.548 352.622C215.528 352.717 215.451 352.774 215.294 352.809L215.07 352.859L214.617 354.563L214.705 354.978C214.789 355.374 214.816 355.415 215.294 355.89C215.671 356.265 216.164 356.619 217.298 357.327C218.835 358.287 220.647 359.473 221.338 359.97C221.993 360.442 223.554 361.468 223.949 361.686C224.155 361.8 224.395 361.96 224.483 362.041C224.63 362.178 224.633 362.197 224.529 362.307C224.376 362.469 223.601 362.646 222.695 362.727C221.559 362.828 220.354 363.148 218.923 363.729C217.556 364.284 217.124 364.517 216.397 365.093C215.826 365.546 215.622 365.844 215.708 366.1C215.744 366.21 215.704 366.402 215.595 366.629C215.502 366.825 215.437 367.074 215.45 367.182C215.471 367.346 215.422 367.418 215.159 367.612C214.81 367.869 214.645 368.118 214.59 368.47C214.57 368.599 214.528 368.735 214.498 368.773C214.414 368.878 214.18 368.813 213.994 368.632C213.902 368.544 213.762 368.46 213.684 368.447C213.493 368.414 213.068 368.712 212.939 368.968C212.847 369.153 212.852 369.179 213.037 369.45C213.145 369.608 213.324 369.872 213.435 370.038C213.739 370.491 213.951 370.564 214.648 370.454C214.973 370.403 215.503 370.352 215.825 370.341C216.148 370.329 216.739 370.301 217.14 370.277C217.54 370.253 218.146 370.268 218.486 370.309C218.826 370.351 219.357 370.37 219.666 370.352C219.975 370.334 220.572 370.354 220.992 370.395C221.413 370.437 222.163 370.454 222.658 370.432C223.816 370.383 224.302 370.425 225.144 370.647C226.004 370.875 226.536 370.936 226.959 370.855C227.141 370.82 227.3 370.819 227.311 370.853C227.365 371.015 225.981 373.479 225.328 374.382C224.262 375.858 223.405 377.131 223.171 377.591C223.055 377.818 222.953 378.15 222.945 378.329C222.934 378.582 222.864 378.741 222.636 379.033C222.337 379.416 222.148 380.037 222.241 380.331C222.303 380.527 222.208 381.207 222.091 381.409C221.959 381.639 222 381.736 222.269 381.832C222.554 381.934 222.889 381.822 223.372 381.463C223.579 381.309 224.042 381.06 224.399 380.909C225.187 380.576 226.266 379.963 226.542 379.692C226.714 379.523 226.737 379.448 226.696 379.188C226.67 379.02 226.673 378.78 226.705 378.655C226.793 378.3 227.262 377.552 227.948 376.671C228.964 375.367 229.477 374.588 230.127 373.363C230.463 372.728 230.764 372.2 230.795 372.19C230.825 372.18 231.061 372.591 231.319 373.105C231.998 374.456 232.502 375.347 233.19 376.417C233.524 376.936 234.245 378.059 234.792 378.913C235.34 379.767 235.909 380.641 236.058 380.856C236.206 381.071 236.578 381.629 236.884 382.096C237.603 383.193 238.823 384.027 238.915 384.048Z" fill="#F4F5F7"/>
<path d="M209.177 492.594C223.086 470.936 250.381 464.078 273.553 478.96C296.726 493.843 301.94 521.365 287.933 543.175C274.12 564.681 246.728 571.69 223.556 556.808C200.383 541.925 195.364 514.1 209.177 492.594ZM221.996 500.613C215.09 511.366 219.637 523.272 237.66 534.847C254.472 545.644 268.099 545.411 275.005 534.658C281.911 523.905 276.26 511.718 259.449 500.921C241.426 489.346 228.902 489.86 221.996 500.613Z" fill="#F6C8BC"/>
<path fill-rule="evenodd" clip-rule="evenodd" d="M323.714 484.322C321.785 484.183 317.248 485.736 314.888 487.342C310.705 490.191 302.715 499.141 297.964 506.301C294.738 511.162 289.864 525.615 289.281 532.051C289.151 533.482 288.82 536.453 288.546 538.653C288.03 542.793 288.091 544.088 288.913 546.451C289.881 549.231 294.074 553.751 299.626 557.999C301.346 559.315 304.544 562.13 306.733 564.255C308.922 566.379 311.545 568.689 312.564 569.388C314.157 570.482 314.629 570.973 315.946 572.91C318.256 576.309 318.637 577.362 318.137 578.98C317.903 579.739 317.638 580.962 317.549 581.697C317.396 582.969 317.253 583.174 314.57 585.988C309.797 590.994 305.669 594.5 300.92 597.581C297.212 599.986 296.279 600.729 294.144 602.973C292.783 604.405 291.242 606.239 290.719 607.049C290.197 607.859 288.801 609.736 287.617 611.221C284.994 614.511 283.711 617.11 282.251 622.086C281.464 624.769 280.702 626.586 279.58 628.453C276.601 633.41 276.313 634.295 277.004 636.348C277.432 637.62 278.398 638.243 281.489 639.243C284.681 640.277 287.367 641.904 288.158 643.286C288.406 643.718 288.751 644.625 288.926 645.3C289.827 648.776 294.108 651.134 296.48 649.462C296.958 649.125 299.032 646.889 301.088 644.493C304.657 640.335 307.289 636.603 308.734 633.653C310.004 631.062 317.029 622.243 321.524 617.6C323.923 615.121 325.204 613.564 326.383 611.695C327.264 610.298 328.56 608.564 329.263 607.84C329.967 607.116 331.108 605.56 331.798 604.381C335.551 597.98 337.022 596.039 341.914 591.031C346.359 586.481 346.818 586.087 350.598 583.573C357.656 578.877 357.297 579.178 360.513 575.282C362.141 573.309 364.703 570.244 366.206 568.471C367.709 566.697 369.61 564.233 370.43 562.993C371.25 561.754 372.552 559.786 373.323 558.619C374.127 557.402 375.374 555.92 376.247 555.145C378.072 553.522 378.617 552.421 378.675 550.243C378.759 547.052 378.575 546.519 376.782 544.777C375.474 543.506 374.797 542.504 373.362 539.718C372.363 537.78 371.129 535.807 370.57 535.255C370.019 534.711 369.105 533.33 368.537 532.186C367.37 529.832 365.808 528.149 364.394 527.721C363.836 527.551 362.796 527.662 361.906 527.985C360.386 528.537 360.369 528.554 358.767 530.935C357.882 532.253 356.08 534.537 354.763 536.012C353.075 537.903 351.96 539.452 350.982 541.267C349.313 544.365 346.869 547.311 344.106 549.556C340.909 552.155 341.266 552.285 334.952 546.203C330.856 542.257 329.344 540.954 327.984 540.195C325.064 538.565 323.754 537.063 322.773 534.217C322.039 532.088 321.99 531.524 322.404 529.972C323.031 527.62 325.457 523.887 328.921 519.944C332.332 516.061 334.399 514.505 337.573 513.43C339.453 512.794 340.163 512.382 341.266 511.283C342.831 509.725 343.081 508.808 342.682 506.092C342.394 504.129 341.841 503.515 338.786 501.762C337.113 500.802 335.863 499.792 333.485 497.482C330.032 494.127 329.167 492.792 327.718 488.579C326.741 485.738 325.533 484.454 323.714 484.322ZM322.556 495.144C323.175 496.47 326.166 500.387 330.172 505.12C330.253 505.215 330.245 505.681 330.153 506.155C330.013 506.884 329.594 507.355 327.401 509.25C324.498 511.758 319.936 516.961 317.833 520.163C317.113 521.26 316.002 522.924 315.364 523.861C313.699 526.308 313.231 528.37 313.618 531.558C314.005 534.746 315.226 537.751 317.581 541.316C319.334 543.969 319.735 544.34 323.659 546.955C327.755 549.685 331.667 554.225 332.916 557.697C333.819 560.207 333.463 561.738 331.196 565.082C328.563 568.967 327.146 570.352 325.785 570.371C324.548 570.388 323.94 569.888 321.992 567.252C320.918 565.797 320.09 565.031 317.471 563.067C314.309 560.694 311.324 558.245 304.073 552.077C298.531 547.362 298.285 547.09 297.488 544.77C296.256 541.181 296.169 539.939 296.785 534.77C297.445 529.237 298.148 526.632 300.507 520.966C301.359 518.92 302.338 516.346 302.682 515.246C303.183 513.641 303.762 512.657 305.615 510.258C306.885 508.614 308.411 506.468 309.007 505.49C310.293 503.377 317.975 495.317 319.614 494.36C320.53 493.824 321.526 493.755 322.018 494.192C322.106 494.271 322.348 494.699 322.556 495.144ZM367.737 543.796C368.713 545.756 369.076 547.859 368.701 549.384C368.564 549.943 367.581 551.711 366.518 553.313C365.455 554.915 364.156 556.887 363.631 557.694C363.107 558.502 360.813 561.369 358.534 564.065C356.256 566.761 353.85 569.715 353.188 570.628C351.854 572.469 351.51 572.762 346.505 576.33C344.585 577.698 342.324 579.322 341.479 579.938C340.635 580.555 337.884 583.174 335.367 585.758C330.734 590.513 330.364 590.991 327.096 596.448C326.552 597.357 325.083 599.457 323.832 601.116C322.581 602.775 320.629 605.385 319.494 606.917C318.359 608.449 315.634 611.755 313.439 614.264C311.244 616.773 309.412 618.991 309.368 619.192C309.323 619.393 307.838 621.207 306.066 623.222C303.86 625.731 302.449 627.596 301.592 629.135C300.08 631.852 296.875 636.67 295.917 637.665C295.073 638.542 293.791 639.077 293.171 638.811C292.61 638.57 288.374 635.675 286.745 634.419C285.202 633.228 285.132 632.376 286.416 630.365C286.949 629.532 287.916 627.113 288.567 624.991C289.936 620.523 291.556 617.696 295.402 613.069C296.737 611.463 298.188 609.564 298.626 608.851C299.467 607.48 301.381 606.156 303.585 605.421C304.203 605.214 306.004 603.85 308.374 601.793C310.462 599.98 312.738 598.132 313.431 597.686C314.196 597.195 317.892 593.613 322.844 588.563C330.373 580.884 331.032 580.148 331.461 578.936C331.801 577.975 332.918 576.432 335.634 573.17C340.469 567.365 343.068 563.888 343.365 562.826C343.497 562.355 343.678 561.371 343.767 560.638C343.951 559.132 344.072 558.993 349.513 553.992C353.275 550.534 356.278 546.872 357.832 543.848C358.381 542.781 359.419 541.346 360.292 540.447C361.627 539.073 361.935 538.891 362.948 538.877C364.017 538.862 364.187 538.968 365.479 540.453C366.241 541.329 367.257 542.833 367.737 543.796Z" fill="#F6C8BC"/>
<path d="M268.161 419.983C267.493 437.79 256.89 446.759 239.493 449.529L310.184 452.181L309.306 475.565L174.401 470.503L175.279 447.119L201.36 448.098C183.861 444.019 173.959 434.281 174.627 416.473C175.322 397.946 190.754 380.332 223.311 381.554C254.789 382.735 268.857 401.456 268.161 419.983ZM222.339 407.456C202.013 406.693 191.057 415.468 190.611 427.34C190.166 439.212 200.488 447.345 220.814 448.107C240.42 448.843 251.323 441.506 251.768 429.635C252.214 417.763 241.945 408.191 222.339 407.456Z" fill="#F6C8BC"/>
<path d="M354.169 370.302L377.125 374.84L359.669 463.131L336.713 458.593L342.439 429.634C335.209 448.571 323.827 457.88 306.345 454.424C292.572 451.701 281.673 440.005 285.339 421.464L297.663 359.131L320.618 363.669L310.005 417.35C308.434 425.296 311.068 435.175 321.31 437.199C335.613 440.027 343.032 426.632 344.394 419.745L354.169 370.302Z" fill="#F6C8BC"/>
<path fill-rule="evenodd" clip-rule="evenodd" d="M170.154 267.723C169.595 268.25 168.851 269.412 168.499 270.306C168.148 271.199 167.392 273.761 166.82 275.998C166.248 278.236 165.487 281.548 165.13 283.359C164.772 285.169 162.541 299.463 160.172 315.123C157.804 330.783 155.313 347.058 154.637 351.29C153.961 355.522 153.167 361.124 152.871 363.739C152.576 366.354 152.213 370.556 152.064 373.077C151.915 375.598 151.79 379.047 151.787 380.741C151.784 382.435 151.882 385.464 152.006 387.473C152.13 389.482 152.469 392.067 152.76 393.219C153.207 394.992 153.431 395.432 154.22 396.082C154.789 396.551 155.766 396.911 156.726 397.006C157.592 397.091 162.088 396.914 166.717 396.612C171.347 396.309 177.241 395.814 179.816 395.511C182.39 395.209 184.766 394.953 185.095 394.943C191.056 394.663 192.47 393.418 193.514 387.964C193.739 386.792 193.928 383.134 193.934 379.835C193.944 375.164 194.131 372.915 194.779 369.674C195.237 367.385 196.159 362.881 196.827 359.666C197.495 356.451 198.307 352.028 198.63 349.838C198.953 347.649 199.316 344.513 199.435 342.869C199.554 341.226 199.773 338.675 199.923 337.201C200.072 335.726 200.504 331.793 200.883 328.46C201.263 325.128 201.883 319.779 202.262 316.575C202.641 313.371 203.094 310.29 203.269 309.729C203.443 309.167 203.948 308.352 204.39 307.918C204.833 307.484 205.656 306.98 206.219 306.796C206.783 306.613 208.289 306.534 209.566 306.622C210.842 306.709 214.655 306.991 218.038 307.249C221.421 307.506 228.206 307.99 233.117 308.322C238.027 308.656 242.373 309.074 242.775 309.252C243.176 309.43 243.831 309.895 244.23 310.286C244.75 310.796 245.047 311.454 245.284 312.615C245.465 313.505 246.103 318.342 246.702 323.365C247.302 328.387 248.103 335.96 248.482 340.193C248.862 344.427 249.323 350.538 249.508 353.775C249.692 357.011 249.916 361.672 250.006 364.132C250.096 366.592 250.207 371.659 250.254 375.391C250.302 379.271 250.522 382.879 250.768 383.817C251.095 385.066 251.411 385.636 252.09 386.202C252.58 386.611 253.472 387.024 254.07 387.121C254.669 387.216 256.575 387.181 258.307 387.042C260.039 386.902 263.399 386.867 265.774 386.964C268.149 387.061 271.25 387.268 272.664 387.425C273.978 387.57 274.422 387.689 275.361 387.942C281.249 389.529 287.166 385.986 287 379.66C286.775 376.979 286.171 372.809 285.659 370.394C285.147 367.978 284.385 364.073 283.967 361.716C283.549 359.359 282.824 354.938 282.356 351.892C281.887 348.847 281.204 343.895 280.838 340.889C280.472 337.883 279.941 333.385 279.658 330.894C279.375 328.403 278.942 324.463 278.696 322.138C278.45 319.813 277.885 314.605 277.439 310.563C276.994 306.522 276.353 301.411 276.014 299.206C275.675 297 275.189 293.051 274.932 290.43C274.676 287.808 274.254 282.771 273.996 279.235C273.737 275.7 273.266 271.765 272.949 270.491C272.503 268.696 272.159 267.912 271.425 267.009C270.738 266.164 269.962 265.671 268.6 265.214C267.568 264.868 265.646 264.427 264.328 264.234C263.011 264.042 260.287 263.743 258.275 263.57C256.263 263.397 252.545 263.166 250.013 263.056C247.481 262.946 243.435 262.841 241.023 262.823C238.61 262.805 234.793 262.871 232.541 262.97C230.289 263.069 226.652 263.321 224.459 263.53C222.267 263.739 218.871 264.139 216.912 264.419C214.954 264.699 211.442 265.33 209.108 265.821C206.774 266.313 203.707 266.953 202.293 267.245C200.022 267.713 199.107 267.695 194.462 267.09C191.57 266.714 188.013 266.337 186.56 266.253C185.106 266.169 181.794 266.078 179.199 266.05C176.605 266.022 173.737 266.171 172.826 266.381C171.579 266.67 170.917 267.002 170.154 267.723ZM244.857 270.538C242.286 270.58 233.426 271.096 225.167 271.686C216.909 272.276 209.748 272.901 209.255 273.076C208.761 273.25 208.127 273.615 207.846 273.888C207.565 274.16 207.248 274.801 207.142 275.313C207.035 275.824 207.021 277.02 207.111 277.971C207.201 278.922 207.187 280.937 207.08 282.449C206.973 283.962 206.644 286.841 206.348 288.846C206.052 290.853 205.786 293.522 205.755 294.78C205.724 296.037 205.772 297.585 205.86 298.219C205.97 299.01 206.255 299.603 206.765 300.103C207.175 300.505 207.931 300.9 208.445 300.981C208.958 301.062 211.025 301.033 213.037 300.916C215.049 300.8 218.162 300.73 219.955 300.762C221.749 300.794 224.865 300.956 226.881 301.123C228.897 301.29 232.493 301.566 234.871 301.736C237.249 301.906 240.487 301.999 242.066 301.943C243.645 301.886 246.122 301.667 247.57 301.457C249.019 301.247 252.595 300.363 255.518 299.493C258.441 298.622 262.129 297.721 263.714 297.489C265.672 297.203 266.813 296.9 267.276 296.545C267.65 296.256 268.063 295.523 268.193 294.915C268.323 294.306 268.315 292.195 268.175 290.224C268.035 288.253 267.664 284.902 267.351 282.777C267.037 280.653 266.436 277.643 266.014 276.088C265.377 273.734 265.103 273.12 264.379 272.414C263.795 271.844 262.889 271.457 261.618 271.233C260.577 271.05 257.432 270.802 254.629 270.681C251.826 270.56 247.429 270.496 244.857 270.538ZM179.471 271.799C180.616 271.758 182.516 271.772 183.694 271.83C184.872 271.887 188.382 272.287 191.493 272.718C194.605 273.148 197.604 273.73 198.158 274.009C198.942 274.405 199.261 274.807 199.597 275.83C199.897 276.741 199.933 278.277 199.717 280.849C199.546 282.888 198.09 293.373 196.482 304.149C194.874 314.925 193.273 326.314 192.923 329.459C192.574 332.604 192.06 338.094 191.782 341.661C191.504 345.228 191.155 349.204 191.008 350.498C190.86 351.792 190.09 355.69 189.297 359.162C188.503 362.632 187.654 366.808 187.41 368.441C187.165 370.074 186.902 372.935 186.824 374.799C186.747 376.663 186.57 379.09 186.433 380.192C186.296 381.294 185.838 382.957 185.417 383.887C184.996 384.818 184.095 386.103 183.414 386.744C182.588 387.522 181.639 388.087 180.557 388.445C179.667 388.74 178.157 389.03 177.202 389.09C176.248 389.151 173.094 389.079 170.193 388.931C167.294 388.783 164.363 388.576 163.683 388.471C163.002 388.365 161.972 387.987 161.393 387.629C160.814 387.272 160.117 386.574 159.844 386.078C159.571 385.582 159.221 384.28 159.065 383.184C158.883 381.893 159.037 379.003 159.506 374.961C159.903 371.534 160.567 365.775 160.98 362.163C161.394 358.552 161.912 353.06 162.133 349.958C162.354 346.855 162.659 342.891 162.811 341.148C162.963 339.405 163.376 335.989 163.728 333.556C164.081 331.123 165.582 321.954 167.065 313.179C168.547 304.405 170.206 294.819 170.751 291.878C171.295 288.936 172.367 283.712 173.132 280.268C174.082 275.993 174.746 273.744 175.225 273.181C175.61 272.728 176.255 272.248 176.658 272.115C177.06 271.982 178.326 271.839 179.471 271.799ZM266.816 305.462C266.161 305.38 264.563 305.47 263.265 305.663C261.967 305.856 260.026 306.225 258.952 306.482C257.878 306.739 256.583 307.237 256.075 307.589C255.567 307.941 254.936 308.616 254.674 309.088C254.411 309.561 254.131 310.345 254.052 310.829C253.973 311.314 254.404 318.535 255.011 326.877C255.618 335.218 256.261 344.327 256.44 347.12C256.618 349.912 257.093 356.901 257.494 362.649C257.896 368.398 258.276 373.954 258.339 374.995C258.402 376.037 258.615 377.38 258.813 377.98C259.049 378.699 259.491 379.264 260.104 379.634C260.893 380.109 262.052 380.137 267.699 379.813C271.364 379.603 274.987 379.23 275.751 378.985C276.852 378.631 277.236 378.34 277.61 377.576C277.949 376.882 278.009 375.415 277.825 372.323C277.684 369.964 277.479 366.459 277.37 364.535C277.26 362.61 276.989 359.784 276.766 358.253C276.544 356.722 275.725 352.617 274.948 349.131C274.17 345.644 273.117 340.45 272.609 337.588C272.1 334.726 271.405 330.374 271.063 327.918C270.722 325.461 270.251 320.659 270.017 317.246C269.782 313.832 269.519 310.148 269.43 309.059C269.3 307.467 269.145 306.935 268.638 306.345C268.272 305.921 267.505 305.549 266.816 305.462Z" fill="#F6C8BC"/>
<path fill-rule="evenodd" clip-rule="evenodd" d="M276.746 313.148C277.025 314.206 277.178 315.415 277.086 315.833C276.995 316.252 277.453 317.24 278.106 318.028C278.929 319.024 279.19 319.874 278.958 320.808C278.774 321.549 278.907 322.673 279.252 323.307C279.597 323.941 280.227 325.354 280.651 326.449C281.076 327.543 281.869 329.219 282.412 330.173C282.956 331.127 283.333 332.183 283.249 332.519C283.023 333.434 285.304 336.348 287.737 338.253C288.921 339.18 291.31 341.471 293.047 343.345C294.784 345.22 297.389 347.769 298.837 349.01C300.285 350.251 302.008 351.891 302.666 352.654C303.325 353.417 306.893 356.584 310.596 359.691C315.927 364.163 317.541 365.286 318.346 365.081C319.082 364.895 319.506 365.061 319.882 365.683C320.673 366.997 323.486 368.926 325.246 369.363C327.178 369.842 329.965 371.842 330.825 373.368C331.711 374.94 332.314 374.967 334.818 373.548C336.929 372.351 336.991 372.255 336.831 370.434C336.739 369.4 336.229 368.056 335.698 367.448C335.166 366.839 334.393 365.656 333.98 364.818C333.567 363.979 332.175 362.639 330.886 361.839C328.402 360.298 323.048 355.52 323.5 355.248C323.647 355.159 324.663 355.565 325.756 356.149C326.85 356.734 328.591 357.593 329.627 358.059C330.661 358.524 332.41 359.75 333.513 360.782C335.524 362.666 336.764 363.323 336.943 362.601C337.112 361.917 336.192 360.771 335.294 360.548C334.548 360.363 329.648 356.505 326.996 354.014C326.537 353.584 325.479 352.764 324.644 352.193C322.606 350.798 315.994 343.615 315.876 342.668C315.825 342.253 314.309 340.322 312.508 338.376C310.706 336.43 309.053 334.543 308.834 334.183C308.615 333.823 306.717 331.632 304.616 329.313C300.388 324.649 299.434 323.261 298.574 320.526C297.538 317.231 297.981 316.776 302.75 316.231C307.199 315.723 310.31 315.672 313.538 316.054C315.323 316.265 318.15 316.522 319.82 316.624C321.491 316.726 324.642 317.074 326.823 317.396C329.004 317.719 332.081 317.899 333.661 317.797C335.241 317.694 337.343 317.61 338.332 317.611C345.73 317.611 345.649 317.632 348.654 314.95C351.303 312.585 352.242 309.595 351.024 307.402C350.522 306.499 350.37 305.25 350.609 303.99C351.488 299.351 351.344 298.255 349.663 296.796C348.787 296.036 348.026 295.047 347.97 294.597C347.914 294.147 347.46 293.678 346.962 293.554C346.464 293.431 345.238 292.048 344.239 290.483C342.674 288.029 335.668 281.507 334.208 281.143C333.973 281.084 333.326 280.397 332.772 279.616C332.217 278.834 329.599 276.056 326.955 273.441C322.092 268.633 320.456 265.931 321.501 264.434C321.772 264.045 322.142 263.764 322.322 263.809C322.502 263.853 323.195 263.335 323.862 262.656C326.153 260.324 330.646 259.346 339.161 259.328C340.293 259.325 342.51 259.242 344.089 259.144C347.692 258.918 352.137 259.423 360.582 261.017C364.227 261.704 368.148 262.202 369.295 262.123C372.165 261.924 374.728 260.123 376.889 256.784C378.701 253.983 378.709 253.955 378.101 252.413C377.764 251.559 377.566 250.547 377.661 250.163C377.881 249.275 376.785 247.667 375.593 247.128C374.309 246.548 374.499 245.083 375.861 245.066C377.431 245.046 377.344 243.469 375.716 242.46C374.981 242.005 374.15 241.333 373.869 240.969C373.165 240.059 371.502 239.436 367.787 238.69C367.047 238.541 364.275 237.728 361.629 236.882C357.885 235.686 356.482 235.425 355.304 235.708C354.472 235.907 353.539 235.895 353.231 235.68C352.923 235.465 351.675 235.521 350.459 235.804C349.241 236.088 347.436 236.118 346.446 235.873C344.546 235.402 343.535 235.4 338.042 235.859C336.166 236.015 333.888 236.026 332.981 235.883C331.982 235.725 330.95 235.955 330.365 236.464C329.07 237.593 326.563 238.146 325.462 237.546C324.955 237.27 324.215 237.32 323.75 237.662C323.299 237.995 322.467 238.152 321.901 238.013C320.736 237.726 317.303 238.673 317.142 239.325C317.083 239.561 314.57 241.278 311.555 243.142C308.541 245.006 305.607 247.065 305.034 247.718C302.111 251.049 300.434 254.128 299.37 258.119C298.769 260.373 297.96 262.773 297.573 263.453C296.989 264.479 297.117 265.499 298.318 269.419C299.114 272.02 300.236 274.969 300.81 275.973C301.384 276.976 302.18 278.671 302.578 279.738C302.977 280.805 304.219 282.519 305.34 283.545C307.586 285.604 310.609 290.526 310.329 291.672C310.145 292.429 306.887 292.859 304.895 292.39C303.415 292.041 297.263 292.595 295.41 293.244C294.59 293.532 293.461 293.653 292.9 293.514C291.981 293.286 287.661 294.603 285.873 295.656C284.392 296.528 282.334 298.912 282.038 300.099C281.869 300.779 280.821 302.204 279.71 303.265C278.01 304.889 277.575 305.673 276.964 308.209C276.476 310.234 276.405 311.855 276.746 313.148Z" fill="#F6C8BC"/>
</g>
<defs>
<clipPath id="clip0_2107_9481">
<rect width="375" height="648" fill="white"/>
</clipPath>
</defs>
</svg>
