<svg width="1440" height="857" viewBox="0 0 1440 857" fill="none" xmlns="http://www.w3.org/2000/svg">
<g clip-path="url(#clip0_2127_12127)">
<rect width="1440" height="857" fill="#EFE8D8"/>
<path d="M332.808 233.264C324.59 233.264 316.583 231.473 312.895 226.943C304.256 231.263 294.879 233.264 284.449 233.264C274.019 233.264 258.847 231.263 258.847 220.832C258.847 211.561 271.279 204.396 293.088 200.077L302.781 198.18L303.308 196.284H279.813C271.069 196.284 266.644 196.389 261.903 199.129L260.638 197.759C263.904 191.859 272.228 178.795 296.038 179.005L325.222 179.321L324.695 181.113C312.895 187.855 292.035 214.3 292.035 223.466C292.035 225.573 293.194 226.732 295.722 226.732C298.883 226.732 304.783 225.046 310.788 222.412C310.683 221.886 310.683 221.254 310.683 220.621C310.683 209.137 325.538 187.75 341.237 179.321H372.528L372.001 181.113C357.672 188.593 339.024 210.507 339.024 222.307C339.024 225.257 340.183 226.732 343.449 226.732C355.987 226.732 375.162 205.345 375.162 197.97C375.162 194.809 371.474 193.966 368.945 194.282L368.419 192.912C375.478 184.168 385.803 178.057 396.76 178.057C405.399 178.057 408.876 181.639 408.876 185.959C408.876 200.92 367.154 233.264 332.808 233.264ZM468.745 183.325C456.945 183.325 439.772 209.032 439.772 222.307C439.772 225.679 441.036 227.996 445.461 227.996C457.261 227.996 474.434 202.289 474.434 189.014C474.434 185.643 473.17 183.325 468.745 183.325ZM406.584 212.825C406.584 194.493 432.608 177.214 468.85 177.214C488.658 177.214 507.622 182.693 507.622 198.391C507.622 216.829 481.493 234.107 445.25 234.107C425.865 234.107 406.584 228.629 406.584 212.825ZM538.685 233.264C528.36 233.264 513.188 231.263 513.083 220.937C512.978 211.666 525.304 204.502 547.219 200.182L556.912 198.286L557.544 196.284H534.049C525.304 196.284 520.879 196.389 516.138 199.129L514.874 197.759C518.14 191.859 526.463 178.795 550.274 179.005L579.458 179.321L578.931 181.113C565.129 189.225 536.894 226.732 549.326 226.732C562.706 226.732 583.146 205.345 583.146 197.97C583.146 194.809 579.458 193.966 576.929 194.282L576.403 192.912C583.567 184.063 594.103 177.846 605.271 178.057C613.488 178.268 616.86 181.745 616.86 185.959C616.86 200.92 573.979 233.264 538.685 233.264ZM614.521 212.825C614.521 194.493 640.544 177.214 675.628 177.214C695.435 177.214 706.181 182.693 706.181 190.384C706.181 197.97 695.224 209.559 648.867 212.404C650.553 218.093 657.717 220.727 667.199 220.727C678.051 220.727 687.112 217.355 692.59 214.511L695.013 217.566C689.113 224.309 671.94 234.107 651.29 234.107C633.801 234.107 614.521 228.629 614.521 212.825ZM648.762 207.452C668.463 206.188 679.315 195.02 679.315 188.382C679.315 185.116 676.787 183.325 673.205 183.325C663.196 183.325 650.658 197.548 648.762 207.452ZM699.857 232V231.157L723.984 195.336C726.723 191.227 726.407 186.907 712.816 190.489L710.815 186.275C717.663 181.745 728.409 179.216 738.629 179.005C748.216 178.795 757.277 180.691 762.44 184.905V185.643L735.679 225.257H739.05L767.813 193.65C777.295 183.325 787.304 178.689 800.052 178.689C819.016 178.689 825.232 187.223 819.122 196.495L806.268 215.986C801.843 222.729 804.372 227.996 814.697 223.361L815.013 225.152L815.75 228.839C808.059 232 800.263 233.58 792.256 233.58C780.666 233.58 765.811 229.998 774.24 217.039L783.3 203.132C789.306 193.966 788.357 191.543 783.616 191.543C777.084 191.543 773.502 196.179 768.761 201.446L740.947 232H699.857ZM943.227 201.552C943.016 187.223 924.368 184.484 915.834 184.484C910.355 184.484 907.3 186.064 907.3 187.539C907.3 188.487 908.88 189.646 911.725 191.016L931.321 200.498C938.38 203.87 945.228 206.82 945.228 214.721C945.228 224.52 934.798 233.58 902.559 233.58C880.434 233.58 865.684 229.893 865.684 219.041C865.684 212.193 871.689 206.609 882.225 207.663L883.068 209.032C878.011 220.305 895.921 227.364 909.828 227.364C914.78 227.364 917.625 226.416 917.625 224.098C917.625 222.202 915.728 219.989 908.143 216.302L891.286 208.189C884.859 205.134 879.802 200.709 879.802 195.441C879.802 183.852 904.245 177.741 926.58 177.741C937.748 177.741 957.345 178.584 957.345 188.593C957.345 194.704 949.548 201.13 945.228 202.816L943.227 201.552ZM1030.54 160.989C1030.54 167.1 1022 173.421 1008.41 173.421C997.454 173.421 993.135 169.734 993.135 165.414C993.135 159.304 1001.67 152.982 1015.26 152.982C1026.11 152.982 1030.54 156.67 1030.54 160.989ZM961.949 186.275C968.797 181.745 979.544 179.216 989.763 179.005C999.351 178.795 1008.41 180.691 1013.57 184.905V185.643L994.083 214.511C987.551 224.204 996.401 229.261 1010.52 220.2L1013.05 224.204C1001.14 232 990.711 233.58 982.494 233.58C971.115 233.58 951.413 230.63 963.003 213.352L975.119 195.336C977.858 191.227 977.542 186.907 963.951 190.489L961.949 186.275ZM1036.38 233.58C1024.79 233.58 1009.72 229.787 1018.36 217.039L1048.6 172.262L1052.81 166.046L1054.6 163.412C1057.34 159.304 1057.03 154.984 1043.44 158.566L1041.43 154.352C1048.28 149.821 1059.87 147.293 1070.09 147.082C1079.68 146.871 1087.9 148.768 1093.06 152.982V153.72L1084.74 166.046L1050.92 215.986C1046.39 222.623 1049.02 227.996 1059.34 223.361L1060.4 228.839C1052.71 232 1044.38 233.58 1036.38 233.58ZM1067.25 232V231.157L1111.4 166.046L1113.19 163.412C1115.93 159.304 1115.61 154.984 1102.02 158.566L1100.02 154.352C1106.87 149.821 1118.46 147.293 1128.68 147.082C1138.27 146.871 1146.48 148.768 1151.65 152.982V153.72L1143.32 166.046L1103.18 225.257H1107.29L1136.05 193.65C1145.54 183.325 1154.28 177.741 1167.34 177.741C1180.83 177.741 1182.3 184.695 1182.2 189.12C1181.78 202.5 1166.5 215.248 1142.59 211.35L1141.85 212.193L1157.76 225.363C1168.29 234.107 1176.93 239.691 1193.47 239.691C1195.79 239.691 1198 239.586 1200.11 239.375L1200.53 242.114C1191.26 249.805 1179.99 254.23 1168.71 254.125C1156.39 254.02 1145.01 248.752 1134.79 240.218L1121.51 229.155V226.943L1138.05 209.137L1146.69 199.55C1150.8 195.125 1151.75 191.332 1149.64 191.332C1147.85 191.332 1143.64 194.071 1137 201.446L1109.19 232H1067.25ZM345.679 397.438C343.256 401.125 342.835 403.654 346.944 404.602L357.901 407.025L354.951 412.293H296.794L299.744 406.287L305.117 404.707C309.226 403.548 310.911 403.443 315.547 396.384L351.685 341.177C354.424 337.068 354.108 332.748 340.517 336.33L338.515 332.116C345.363 327.586 356.11 325.057 366.329 324.846C375.917 324.636 384.977 326.532 390.14 330.746V331.484L370.438 360.668H373.81L393.406 340.755C402.256 331.695 411.633 325.689 426.594 325.689C444.82 325.689 452.722 332.748 452.722 342.125C452.722 362.775 414.794 381.213 383.397 381.213C374.336 381.213 366.119 378.895 360.429 375.523L345.679 397.438ZM372.756 369.518C374.758 373.416 378.34 374.996 382.238 374.996C396.567 374.996 415.742 352.871 416.058 343.916C416.163 340.439 413.529 338.543 409.631 338.543C405.838 338.543 401.519 340.334 396.461 345.391L372.756 369.518ZM445.2 412.293C433.927 412.293 429.502 398.175 437.825 382.793H439.405C446.253 390.063 455.63 393.012 463.427 393.012C468.589 393.012 480.6 391.748 496.087 379H472.382L469.643 348.868C468.589 337.595 464.796 336.33 456.368 341.282L452.996 337.595C460.793 330.325 469.537 325.162 479.019 325.162C486.078 325.162 497.141 327.796 498.3 344.654L500.407 375.207C521.584 355.716 522.427 339.912 510.732 341.282L510.205 339.912C517.053 328.955 527.589 325.057 537.598 325.057C547.396 325.057 550.662 328.85 550.662 332.537C550.662 340.966 533.594 355.295 512.839 372.363L489.555 390.168C471.644 402.705 454.471 412.293 445.2 412.293ZM619.97 307.989C619.97 314.1 611.436 320.421 597.845 320.421C586.888 320.421 582.568 316.734 582.568 312.414C582.568 306.304 591.102 299.982 604.693 299.982C615.545 299.982 619.97 303.67 619.97 307.989ZM505.974 409.027L506.606 404.918C519.986 401.863 529.89 394.593 537.791 382.687L564.552 342.336C567.291 338.227 566.975 333.907 553.384 337.489L551.382 333.275C558.231 328.745 568.977 326.216 579.197 326.005C588.784 325.795 597.845 327.691 603.007 331.905V332.643L560.549 396.279C551.699 409.554 536.949 415.77 505.974 409.027ZM623.341 381.213C605.115 381.213 597.213 374.154 597.213 364.777C597.213 344.127 635.141 325.689 666.538 325.689C676.02 325.689 685.397 327.691 691.613 330.22L692.877 328.534L694.774 325.9C702.359 326.638 715.95 325.689 722.693 324.004L724.063 325.268L721.85 328.534L698.461 362.986C693.931 369.623 696.565 374.996 706.89 370.361L707.943 375.839C700.252 379 691.929 380.58 683.922 380.58C672.332 380.58 656.634 376.261 665.906 364.039L679.391 346.234H676.125L656.529 366.146C647.679 375.207 638.302 381.213 623.341 381.213ZM632.297 362.986C632.191 366.463 634.825 368.359 638.724 368.359C642.516 368.359 646.941 366.673 651.893 361.511L676.441 336.436C675.599 333.486 670.015 331.905 666.116 331.905C651.682 331.905 632.613 353.925 632.297 362.986ZM844.018 348.446L817.046 379H776.273L794.816 350.132C800.821 340.755 799.873 338.543 794.711 338.543C790.286 338.543 786.703 343.179 781.962 348.446L754.991 379H713.902V378.157L738.028 342.336C740.768 338.227 740.452 333.907 726.861 337.489L724.859 333.275C731.707 328.745 742.453 326.216 752.673 326.005C762.261 325.795 771.321 327.691 776.484 331.905V332.643L749.723 372.257H753.094L781.014 340.65C790.286 330.114 799.241 325.689 809.777 325.689C830.532 325.689 837.275 334.434 831.164 343.495L811.778 372.257H815.15L843.069 340.65C852.341 330.114 861.296 325.689 871.832 325.689C892.587 325.689 899.436 334.223 893.219 343.495L880.05 362.986C875.519 369.729 878.153 374.996 888.478 370.361L889.532 375.839C881.841 379 873.518 380.58 865.511 380.58C853.921 380.58 838.855 376.893 847.494 364.039L856.871 350.132C862.982 341.071 861.928 338.543 856.766 338.543C852.341 338.543 848.759 343.179 844.018 348.446ZM924.288 381.213C906.062 381.213 898.16 374.154 898.16 364.777C898.16 344.127 936.088 325.689 967.485 325.689C976.967 325.689 986.344 327.691 992.56 330.22L993.824 328.534L995.72 325.9C1003.31 326.638 1016.9 325.689 1023.64 324.004L1025.01 325.268L1022.8 328.534L999.408 362.986C994.878 369.623 997.512 374.996 1007.84 370.361L1008.89 375.839C1001.2 379 992.876 380.58 984.869 380.58C973.279 380.58 957.581 376.261 966.853 364.039L980.338 346.234H977.072L957.476 366.146C948.626 375.207 939.249 381.213 924.288 381.213ZM933.244 362.986C933.138 366.463 935.772 368.359 939.67 368.359C943.463 368.359 947.888 366.673 952.84 361.511L977.388 336.436C976.545 333.486 970.962 331.905 967.063 331.905C952.629 331.905 933.56 353.925 933.244 362.986ZM1095.55 348.552C1095.34 334.223 1076.69 331.484 1068.16 331.484C1062.68 331.484 1059.63 333.064 1059.63 334.539C1059.63 335.487 1061.21 336.646 1064.05 338.016L1083.65 347.498C1090.71 350.87 1097.55 353.82 1097.55 361.721C1097.55 371.52 1087.12 380.58 1054.88 380.58C1032.76 380.58 1018.01 376.893 1018.01 366.041C1018.01 359.193 1024.01 353.609 1034.55 354.663L1035.39 356.032C1030.34 367.305 1048.25 374.364 1062.15 374.364C1067.11 374.364 1069.95 373.416 1069.95 371.098C1069.95 369.202 1068.05 366.989 1060.47 363.302L1043.61 355.189C1037.18 352.134 1032.13 347.709 1032.13 342.441C1032.13 330.852 1056.57 324.741 1078.91 324.741C1090.07 324.741 1109.67 325.584 1109.67 335.593C1109.67 341.704 1101.87 348.13 1097.55 349.816L1095.55 348.552ZM80.8929 506.825C80.8929 488.493 106.916 471.214 142 471.214C161.807 471.214 172.554 476.693 172.554 484.384C172.554 491.97 161.596 503.559 115.239 506.404C116.925 512.093 124.089 514.727 133.571 514.727C144.423 514.727 153.484 511.355 158.963 508.511L161.386 511.566C155.486 518.309 138.313 528.107 117.663 528.107C100.173 528.107 80.8929 522.629 80.8929 506.825ZM115.134 501.452C134.836 500.188 145.688 489.02 145.688 482.382C145.688 479.116 143.159 477.325 139.577 477.325C129.568 477.325 117.03 491.548 115.134 501.452ZM214.694 498.08L237.767 498.923L236.292 501.03L213.219 500.188L214.694 498.08ZM163.912 517.887C163.912 508.616 173.605 501.03 180.558 498.186L182.139 498.818C182.033 502.611 182.244 509.986 189.724 509.986C201.208 509.986 210.374 492.391 210.374 486.912C210.374 484.805 209.005 483.12 204.58 483.12C200.892 483.12 193.517 484.279 189.303 487.755L186.669 484.805C194.149 477.22 211.955 471.32 227.337 471.32C236.608 471.32 245.142 473.532 245.142 481.539C245.142 485.648 243.035 491.232 237.767 498.923L241.244 499.029L247.46 490.705C255.994 479.221 263.158 471.32 274.748 471.32C282.965 471.32 287.074 475.218 287.074 481.223C287.074 490.495 277.381 498.08 270.428 500.925L268.848 500.293C268.953 496.5 268.742 489.125 261.262 489.125C249.778 489.125 240.612 506.72 240.612 512.198C240.612 514.305 241.981 515.991 246.406 515.991C250.094 515.991 257.469 514.832 261.683 511.355L264.317 514.305C256.837 521.891 239.031 527.791 223.649 527.791C214.378 527.791 205.844 525.579 205.844 517.571C205.844 513.463 207.951 507.879 213.219 500.188L209.742 500.082L203.526 508.405C194.992 519.889 187.828 527.791 176.239 527.791C168.021 527.791 163.912 523.893 163.912 517.887ZM350.587 498.186C354.485 489.862 355.117 477.325 344.265 477.325C331.517 477.325 317.715 494.077 317.715 503.875C317.715 511.355 325.512 514.727 336.363 514.727C347.215 514.727 356.276 511.355 361.754 508.511L364.178 511.566C358.278 518.309 341.104 528.107 320.454 528.107C302.965 528.107 283.685 522.629 283.685 506.825C283.685 488.493 309.708 471.214 344.792 471.214C364.599 471.214 375.346 476.693 375.346 484.489C375.346 492.075 364.915 498.291 351.429 499.134L350.587 498.186ZM458.595 527.58C447.006 527.58 431.94 523.893 440.579 511.039L449.956 497.132C456.066 488.071 455.013 485.543 449.85 485.543C443.74 485.543 440.157 490.179 435.416 495.446L407.602 526H366.513V525.157L406.127 466.262L412.132 457.412C414.872 453.304 414.556 448.984 400.965 452.566L398.963 448.352C405.811 443.821 416.557 441.293 426.777 441.082C436.365 440.871 444.266 442.768 449.429 446.982V447.72L402.229 519.257H405.706L434.468 487.65C443.95 477.325 453.959 472.689 464.916 472.689C485.672 472.689 492.52 481.223 486.304 490.495L473.134 509.986C468.604 516.729 471.238 521.996 481.563 517.361L482.616 522.839C474.925 526 466.602 527.58 458.595 527.58ZM517.367 528.213C499.14 528.213 491.238 521.154 491.238 511.777C491.238 491.127 529.167 472.689 560.563 472.689C570.045 472.689 579.422 474.691 585.638 477.22L586.903 475.534L588.799 472.9C596.385 473.638 609.976 472.689 616.719 471.004L618.088 472.268L615.876 475.534L592.487 509.986C587.956 516.623 590.59 521.996 600.915 517.361L601.969 522.839C594.278 526 585.954 527.58 577.947 527.58C566.358 527.58 550.66 523.261 559.931 511.039L573.417 493.234H570.151L550.554 513.146C541.704 522.207 532.328 528.213 517.367 528.213ZM526.322 509.986C526.217 513.463 528.851 515.359 532.749 515.359C536.542 515.359 540.967 513.673 545.919 508.511L570.467 483.436C569.624 480.486 564.04 478.905 560.142 478.905C545.708 478.905 526.638 500.925 526.322 509.986ZM607.927 526V525.157L632.054 489.336C634.793 485.227 634.477 480.907 620.886 484.489L618.884 480.275C625.733 475.745 636.479 473.216 646.699 473.005C656.286 472.795 665.347 474.691 670.509 478.905V479.643L643.749 519.257H647.12L675.883 487.65C685.365 477.325 695.374 472.689 708.122 472.689C727.086 472.689 733.302 481.223 727.191 490.495L714.338 509.986C709.913 516.729 712.441 521.996 722.766 517.361L723.083 519.152L723.82 522.839C716.129 526 708.333 527.58 700.325 527.58C688.736 527.58 673.881 523.998 682.309 511.039L691.37 497.132C697.375 487.966 696.427 485.543 691.686 485.543C685.154 485.543 681.572 490.179 676.831 495.446L649.016 526H607.927ZM750.955 559.188C727.461 559.188 712.184 554.025 711.973 544.964C711.762 537.273 722.93 531.163 734.73 531.268L735.152 530.846C731.359 528.529 729.146 525.473 729.146 521.68C729.146 513.568 739.261 506.298 752.114 505.877L752.536 505.35C747.584 503.137 744.423 499.766 744.423 495.025C744.423 483.014 764.336 471.214 796.048 471.214C799.209 471.214 802.264 471.32 805.32 471.53C816.382 462.048 830.078 454.568 839.35 456.254C848.095 457.729 847.041 467.737 841.668 474.27H838.718C835.136 469.318 821.334 467.737 810.798 472.162C821.755 473.743 830.078 477.641 830.078 485.859C830.078 497.87 812.378 509.775 780.666 509.775C772.237 509.775 763.387 509.037 756.539 506.93C752.114 509.986 756.75 512.304 769.814 514.2L785.512 516.518C795.943 518.098 806.057 521.259 805.952 530.741C805.741 544.016 786.145 559.188 750.955 559.188ZM734.309 540.118C734.309 546.334 743.159 552.655 761.175 552.655C771.605 552.655 785.618 550.232 785.618 544.859C785.618 541.804 781.087 540.539 767.18 538.327L750.534 535.693C746.214 534.955 742.211 534.007 739.05 532.743C736.205 534.113 734.309 537.273 734.309 540.118ZM775.82 499.029C775.82 503.032 777.4 504.507 780.666 504.507C790.57 504.507 798.366 490.705 798.366 482.066C798.366 478.063 796.68 476.482 793.414 476.482C783.511 476.482 775.82 490.284 775.82 499.029ZM831.563 506.825C831.563 488.493 857.586 471.214 892.67 471.214C912.477 471.214 923.223 476.693 923.223 484.384C923.223 491.97 912.266 503.559 865.909 506.404C867.595 512.093 874.759 514.727 884.241 514.727C895.093 514.727 904.154 511.355 909.632 508.511L912.055 511.566C906.155 518.309 888.982 528.107 868.332 528.107C850.843 528.107 831.563 522.629 831.563 506.825ZM865.804 501.452C885.505 500.188 896.357 489.02 896.357 482.382C896.357 479.116 893.829 477.325 890.246 477.325C880.238 477.325 867.7 491.548 865.804 501.452ZM1029.42 457.412C1032.16 453.304 1031.84 448.984 1018.25 452.566L1016.25 448.352C1023.1 443.821 1033.85 441.293 1044.07 441.082C1053.65 440.871 1061.66 442.768 1066.82 446.982V447.72L1025.73 509.986C1021.31 516.729 1023.84 521.996 1034.16 517.361L1035.22 522.839C1027.52 526 1019.2 527.58 1011.19 527.58C999.605 527.58 984.539 523.787 993.178 511.039L1005.08 493.445H1001.71L982.115 513.357C973.265 522.418 963.889 528.423 948.928 528.423C930.701 528.423 922.799 521.364 922.799 511.988C922.799 491.337 960.728 472.9 992.124 472.9C1001.08 472.9 1009.93 474.691 1016.15 477.009L1029.42 457.412ZM959.464 510.196C959.358 513.673 961.992 515.57 965.89 515.57C969.683 515.57 974.108 513.884 979.06 508.721L1003.61 483.646C1002.77 480.696 997.181 479.116 993.283 479.116C978.955 479.116 959.78 501.241 959.464 510.196ZM1122.14 469.318C1129.31 458.677 1139.95 440.029 1175.03 440.029C1191.47 440.029 1210.64 443.611 1210.64 454.357C1210.64 465.946 1188.31 469.423 1175.98 467.632L1175.03 465.209C1181.14 457.834 1183.46 446.139 1175.14 446.139C1168.92 446.139 1164.29 452.777 1152.8 469.845L1150.48 473.321H1164.6V474.586L1159.97 481.329H1145.01L1103.18 543.279C1094.12 556.659 1079.58 562.77 1048.6 556.027L1049.24 551.918C1062.62 548.863 1073.26 541.593 1081.26 529.687L1114.03 481.329H1104.13V480.064L1107.18 475.534L1118.35 475.007L1122.14 469.318ZM1215.66 477.325C1203.86 477.325 1186.69 503.032 1186.69 516.307C1186.69 519.679 1187.95 521.996 1192.38 521.996C1204.18 521.996 1221.35 496.289 1221.35 483.014C1221.35 479.643 1220.08 477.325 1215.66 477.325ZM1153.5 506.825C1153.5 488.493 1179.52 471.214 1215.76 471.214C1235.57 471.214 1254.54 476.693 1254.54 492.391C1254.54 510.829 1228.41 528.107 1192.16 528.107C1172.78 528.107 1153.5 522.629 1153.5 506.825ZM1366.2 482.066C1366.2 492.812 1346.07 502.295 1338.8 504.402L1337.54 503.559C1338.17 499.661 1339.12 491.443 1331.11 491.443C1326.58 491.443 1322.79 493.971 1318.05 499.239L1293.71 526H1252.62V525.157L1276.75 489.336C1279.49 485.227 1279.17 480.907 1265.58 484.489L1263.58 480.275C1270.43 475.745 1281.17 473.216 1291.39 473.005C1300.98 472.795 1310.04 474.691 1315.2 478.905V479.643L1288.44 519.257H1291.82L1320.58 487.65C1330.06 477.325 1340.07 472.689 1351.03 472.689C1361.67 472.689 1366.2 476.904 1366.2 482.066ZM254.412 668.996C268.845 668.996 287.915 647.082 288.231 637.916C288.337 634.439 285.703 632.543 281.804 632.543C278.012 632.543 273.692 634.334 268.635 639.391L251.567 656.775C245.772 662.675 246.72 668.996 254.412 668.996ZM210.478 658.039L243.244 609.575L246.72 604.412C249.46 600.304 249.144 595.984 235.553 599.566L233.551 595.352C240.399 590.821 250.303 588.293 260.522 588.082C270.11 587.871 279.17 589.768 284.333 593.982V594.72L275.694 607.573L275.272 608.205L274.324 609.575L242.401 654.562H245.772L265.369 634.65C274.219 625.589 283.595 619.584 298.556 619.584C316.783 619.584 324.685 626.643 324.685 636.02C324.685 656.67 286.44 675.107 255.36 675.107C238.292 675.107 208.37 672.579 210.478 658.039ZM344.97 674.58C333.381 674.58 318.315 670.787 326.954 658.039L357.192 613.262L361.406 607.046L363.197 604.412C365.936 600.304 365.62 595.984 352.029 599.566L350.027 595.352C356.875 590.821 368.465 588.293 378.684 588.082C388.272 587.871 396.49 589.768 401.652 593.982V594.72L393.329 607.046L359.509 656.986C354.979 663.623 357.613 668.996 367.938 664.361L368.992 669.839C361.3 673 352.977 674.58 344.97 674.58ZM468.879 628.855H465.508L437.693 659.62C428.317 670.05 418.202 674.58 407.245 674.58C386.49 674.58 379.642 666.046 385.858 656.775L399.027 637.284C403.558 630.541 400.924 625.273 390.599 629.909L389.545 624.43C397.236 621.27 405.56 619.689 413.567 619.689C425.156 619.689 440.222 623.377 431.583 636.23L422.206 650.137C416.095 659.198 417.149 661.727 422.311 661.727C428.422 661.727 431.899 657.196 436.745 651.823L463.717 622.113H504.806V622.955L481.101 657.934C478.361 662.043 478.677 666.363 492.268 662.78L494.27 666.995C487.422 671.525 476.676 674.054 466.456 674.264C456.868 674.475 447.808 672.579 442.645 668.364V667.627L468.879 628.855ZM503.916 653.825C503.916 635.493 529.939 618.214 565.023 618.214C584.83 618.214 595.577 623.693 595.577 631.384C595.577 638.97 584.62 650.559 538.263 653.404C539.948 659.093 547.113 661.727 556.595 661.727C567.447 661.727 576.507 658.355 581.986 655.511L584.409 658.566C578.509 665.309 561.336 675.107 540.686 675.107C523.197 675.107 503.916 669.629 503.916 653.825ZM538.157 648.452C557.859 647.188 568.711 636.02 568.711 629.382C568.711 626.116 566.182 624.325 562.6 624.325C552.591 624.325 540.054 638.548 538.157 648.452ZM664.519 675.213C646.292 675.213 638.391 668.154 638.391 658.777C638.391 638.127 676.319 619.689 707.716 619.689C716.882 619.689 725.837 621.586 732.053 624.009L734.898 619.9C742.483 620.638 757.971 619.689 764.714 618.004L766.083 619.268L717.724 691.438C715.301 695.125 714.774 697.127 718.778 698.602L725.521 701.025L722.571 706.293H662.517L665.467 700.287L675.055 698.707C679.164 698.075 681.482 696.389 685.591 690.489L720.675 640.234H717.303L697.707 660.146C688.857 669.207 679.48 675.213 664.519 675.213ZM675.055 656.986C674.95 660.463 677.583 662.359 681.482 662.359C685.274 662.359 689.7 660.673 694.651 655.511L719.199 630.436C718.357 627.486 712.773 625.905 708.874 625.905C694.441 625.905 675.371 647.925 675.055 656.986ZM845.449 628.855H842.077L814.263 659.62C804.886 670.05 794.772 674.58 783.815 674.58C763.059 674.58 756.211 666.046 762.427 656.775L775.597 637.284C780.127 630.541 777.493 625.273 767.168 629.909L766.115 624.43C773.806 621.27 782.129 619.689 790.136 619.689C801.725 619.689 816.791 623.377 808.152 636.23L798.775 650.137C792.665 659.198 793.718 661.727 798.881 661.727C804.991 661.727 808.468 657.196 813.315 651.823L840.286 622.113H881.375V622.955L857.67 657.934C854.931 662.043 855.247 666.363 868.838 662.78L870.84 666.995C863.991 671.525 853.245 674.054 843.025 674.264C833.438 674.475 824.377 672.579 819.215 668.364V667.627L845.449 628.855ZM903.453 675.213C885.227 675.213 877.325 668.154 877.325 658.777C877.325 638.127 915.253 619.689 946.65 619.689C956.132 619.689 965.509 621.691 971.725 624.22L972.989 622.534L974.886 619.9C982.471 620.638 996.062 619.689 1002.81 618.004L1004.17 619.268L1001.96 622.534L978.573 656.986C974.043 663.623 976.677 668.996 987.002 664.361L988.055 669.839C980.364 673 972.041 674.58 964.034 674.58C952.445 674.58 936.746 670.261 946.018 658.039L959.503 640.234H956.237L936.641 660.146C927.791 669.207 918.414 675.213 903.453 675.213ZM912.409 656.986C912.303 660.463 914.937 662.359 918.836 662.359C922.628 662.359 927.053 660.673 932.005 655.511L956.553 630.436C955.711 627.486 950.127 625.905 946.228 625.905C931.795 625.905 912.725 647.925 912.409 656.986ZM1107.59 629.066C1107.59 639.812 1087.47 649.295 1080.2 651.402L1078.93 650.559C1079.56 646.661 1080.51 638.443 1072.5 638.443C1067.97 638.443 1064.18 640.971 1059.44 646.239L1035.1 673H994.014V672.157L1018.14 636.336C1020.88 632.227 1020.56 627.907 1006.97 631.489L1004.97 627.275C1011.82 622.745 1022.57 620.216 1032.79 620.005C1042.37 619.795 1051.43 621.691 1056.6 625.905V626.643L1029.84 666.257H1033.21L1061.97 634.65C1071.45 624.325 1081.46 619.689 1092.42 619.689C1103.06 619.689 1107.59 623.904 1107.59 629.066ZM1128.99 674.58C1115.82 674.58 1096.11 670.682 1108.13 652.877L1124.56 628.329H1115.08V627.064L1118.13 622.534C1133.83 620.848 1158.91 609.259 1167.55 601.989L1173.34 603.57L1162.07 620.321H1176.19V621.586L1171.55 628.329H1156.59L1137.2 656.986C1132.67 663.623 1138.05 667.943 1155.11 663.307L1156.17 668.786C1149.85 671.946 1139.21 674.58 1128.99 674.58ZM1157.81 674.37V672.157L1203.43 644.975L1203.11 644.132C1194.48 643.711 1185.84 641.604 1179.09 641.604C1174.56 641.604 1170.35 642.446 1166.13 645.186L1163.4 643.289C1164.98 640.234 1178.36 618.741 1200.38 618.741C1208.59 618.741 1223.03 621.48 1235.04 621.48C1239.78 621.48 1244.31 621.059 1247.68 619.689L1249.37 622.323L1185.52 660.779L1200.9 669.734C1217.13 679.216 1228.93 681.218 1239.78 681.218C1243.26 681.218 1246.42 681.007 1248.73 680.796L1249.37 683.009C1240.31 690.068 1225.24 695.125 1209.86 695.125C1198.9 695.125 1188.68 692.491 1174.98 684.484L1157.81 674.37Z" fill="#FF4552"/>
</g>
<defs>
<clipPath id="clip0_2127_12127">
<rect width="1440" height="857" fill="white"/>
</clipPath>
</defs>
</svg>
