<svg width="1000" height="1000" viewBox="0 0 1000 1000" fill="none" xmlns="http://www.w3.org/2000/svg">
<rect width="1000" height="1000" fill="#3326AF"/>
<g filter="url(#filter0_g_2238_7139)">
<line x1="261" y1="200" x2="261" y2="800" stroke="#1E138A" stroke-width="2"/>
<line x1="321" y1="200" x2="321" y2="800" stroke="#1E138A" stroke-width="2"/>
<line x1="381" y1="200" x2="381" y2="800" stroke="#1E138A" stroke-width="2"/>
<line x1="441" y1="200" x2="441" y2="800" stroke="#1E138A" stroke-width="2"/>
<line x1="561" y1="200" x2="561" y2="800" stroke="#1E138A" stroke-width="2"/>
<line x1="621" y1="200" x2="621" y2="800" stroke="#1E138A" stroke-width="2"/>
<line x1="681" y1="200" x2="681" y2="800" stroke="#1E138A" stroke-width="2"/>
<line x1="741" y1="200" x2="741" y2="800" stroke="#1E138A" stroke-width="2"/>
<line x1="860" y1="501" x2="140" y2="501" stroke="#1E138A" stroke-width="2"/>
<line x1="800" y1="261" x2="200" y2="261" stroke="#1E138A" stroke-width="2"/>
<line x1="800" y1="321" x2="200" y2="321" stroke="#1E138A" stroke-width="2"/>
<line x1="800" y1="381" x2="200" y2="381" stroke="#1E138A" stroke-width="2"/>
<line x1="800" y1="441" x2="200" y2="441" stroke="#1E138A" stroke-width="2"/>
<line x1="800" y1="561" x2="200" y2="561" stroke="#1E138A" stroke-width="2"/>
<line x1="800" y1="621" x2="200" y2="621" stroke="#1E138A" stroke-width="2"/>
<line x1="800" y1="681" x2="200" y2="681" stroke="#1E138A" stroke-width="2"/>
<line x1="800" y1="741" x2="200" y2="741" stroke="#1E138A" stroke-width="2"/>
<path d="M500 800C665.685 800 800 665.685 800 500C800 334.315 665.685 200 500 200C334.315 200 200 334.315 200 500C200 665.685 334.315 800 500 800Z" stroke="#887CFF"/>
<path d="M500 710C615.98 710 710 615.98 710 500C710 384.02 615.98 290 500 290C384.02 290 290 384.02 290 500C290 615.98 384.02 710 500 710Z" stroke="#887CFF"/>
<path d="M500 650C582.843 650 650 582.843 650 500C650 417.157 582.843 350 500 350C417.157 350 350 417.157 350 500C350 582.843 417.157 650 500 650Z" stroke="#887CFF"/>
<rect x="200" y="200" width="600" height="600" stroke="#887CFF" stroke-width="2"/>
<rect x="140.085" y="141.498" width="2" height="1016" transform="rotate(-45 140.085 141.498)" fill="#887CFF"/>
<rect width="2" height="1016" transform="matrix(-0.707107 -0.707107 -0.707107 0.707107 859.916 141.498)" fill="#887CFF"/>
<rect x="499" y="140" width="2" height="720" fill="#887CFF"/>
<rect x="860" y="499" width="2" height="720" transform="rotate(90 860 499)" fill="#887CFF"/>
</g>
<g filter="url(#filter1_i_2238_7139)">
<path d="M530 859V500H470V859H530Z" fill="#F5FFB6"/>
<path d="M373 373C340 405 320 450 320 500C320 549 340 594 373 627" stroke="#F5FFB6" stroke-width="60"/>
<path d="M500 560C533 560 560 533 560 500C560 467 533 440 500 440C467 440 440 467 440 500C440 533 467 560 500 560Z" fill="#F5FFB6"/>
<path d="M627 628C660 595 680 550 680 500C680 450 660 405 627 373" stroke="#F5FFB6" stroke-width="60"/>
<path d="M712 712C766 658 800 583 800 500C800 417 766 342 712 288" stroke="#F5FFB6" stroke-width="60"/>
<path d="M288 289C234 343 200 418 200 500C200 582 234 657 288 712" stroke="#F5FFB6" stroke-width="60"/>
</g>
<defs>
<filter id="filter0_g_2238_7139" x="133" y="133" width="734" height="734" filterUnits="userSpaceOnUse" color-interpolation-filters="sRGB">
<feFlood flood-opacity="0" result="BackgroundImageFix"/>
<feBlend mode="normal" in="SourceGraphic" in2="BackgroundImageFix" result="shape"/>
<feTurbulence type="fractalNoise" baseFrequency="0.99900001287460327 0.99900001287460327" numOctaves="3" seed="997" />
<feDisplacementMap in="shape" scale="14" xChannelSelector="R" yChannelSelector="G" result="displacedImage" width="100%" height="100%" />
<feMerge result="effect1_texture_2238_7139">
<feMergeNode in="displacedImage"/>
</feMerge>
</filter>
<filter id="filter1_i_2238_7139" x="170" y="258" width="660" height="601" filterUnits="userSpaceOnUse" color-interpolation-filters="sRGB">
<feFlood flood-opacity="0" result="BackgroundImageFix"/>
<feBlend mode="normal" in="SourceGraphic" in2="BackgroundImageFix" result="shape"/>
<feColorMatrix in="SourceAlpha" type="matrix" values="0 0 0 0 0 0 0 0 0 0 0 0 0 0 0 0 0 0 127 0" result="hardAlpha"/>
<feOffset/>
<feGaussianBlur stdDeviation="8"/>
<feComposite in2="hardAlpha" operator="arithmetic" k2="-1" k3="1"/>
<feColorMatrix type="matrix" values="0 0 0 0 0.133783 0 0 0 0 0.297753 0 0 0 0 0.890569 0 0 0 1 0"/>
<feBlend mode="normal" in2="shape" result="effect1_innerShadow_2238_7139"/>
</filter>
</defs>
</svg>
