<svg width="36" height="36" viewBox="0 0 36 36" fill="none" xmlns="http://www.w3.org/2000/svg">
<path d="M18.0085 1C8.29202 1 1.06445 8.24119 1.06445 17.976C1.06445 27.7588 8.29202 34.9521 18.0085 34.9521C27.773 34.9521 34.9526 27.7108 34.9526 17.976C35.0006 8.24119 27.773 1 18.0085 1ZM14.8973 11.0705H21.0241V23.347H14.8973V11.0705ZM7.81338 11.0705H13.8922V23.347H7.81338V11.0705ZM28.2038 26.0325H7.81338V25.0254H28.2038V26.0325ZM28.2038 23.347H22.077V11.0705H28.2516V23.347H28.2038Z" fill="#FF5C00"/>
<path d="M21.0232 11.0703H14.8964V23.3468H21.0232V11.0703Z" fill="black"/>
<path d="M13.8913 11.0703H7.8125V23.3468H13.8913V11.0703Z" fill="black"/>
<path d="M7.8125 26.0323H28.2029V25.0252H7.8125V26.0323Z" fill="black"/>
<path d="M22.0762 23.3468H28.2029H28.2507V11.0703H22.0762V23.3468Z" fill="black"/>
</svg>
